<svg width="203" height="203" viewBox="0 0 203 203" fill="none" xmlns="http://www.w3.org/2000/svg">
<path d="M125.982 7.78318L125.559 9.88246L121.911 9.14L119.645 20.2244L116.992 19.6779L119.258 8.59355L115.634 7.85237L116.057 5.75309L125.982 7.78318Z" fill="#242F65"/>
<path d="M144.231 14.5002L138.997 26.9047L136.49 25.8654L138.765 20.4793L133.448 18.2415L131.151 23.6025L128.668 22.5645L133.902 10.1599L136.385 11.198L134.274 16.2113L139.591 18.4492L141.702 13.4358L144.231 14.5002Z" fill="#242F65"/>
<path d="M153.063 32.588L148.63 29.4913L146.291 31.1548L143.959 29.5288L155.713 21.5002L158.23 23.2552L154.603 36.9611L152.271 35.3351L153.063 32.588ZM153.653 30.4976L155.302 24.7206L150.398 28.2264L153.653 30.4976Z" fill="#242F65"/>
<path d="M166.506 49.0616L164.672 47.0806L167.32 36.4695L160.572 42.6666L158.738 40.6856L168.657 31.5819L170.492 33.5629L167.792 44.2428L174.59 38.0007L176.424 39.9817L166.506 49.0616Z" fill="#242F65"/>
<path d="M178.983 55.3519L176.022 63.753L174.351 60.9463L177.092 53.5348L171.776 56.6849L170.391 54.3702L181.987 47.5014L183.373 49.8162L178.156 52.9L185.923 54.1L187.594 56.883L178.983 55.3519Z" fill="#242F65"/>
<path d="M182.933 76.5174C182.269 76.3867 181.664 76.0684 181.092 75.5612C180.52 75.054 180.079 74.3391 179.769 73.4167C179.434 72.5168 179.311 71.6758 179.355 70.8438C179.4 70.0117 179.653 69.31 180.069 68.6884C180.485 68.0669 181.086 67.5744 181.823 67.2321L182.805 69.9306C182.313 70.1667 181.958 70.5293 181.741 71.0184C181.523 71.5074 181.519 72.0317 181.728 72.615C181.915 73.1494 182.208 73.4988 182.581 73.6855C182.954 73.8722 183.385 73.8713 183.824 73.7278C184.215 73.5817 184.514 73.3592 184.675 73.034C184.86 72.7101 184.95 72.3573 184.996 71.9545C185.017 71.5503 185.046 71.0035 185.01 70.3341C184.985 69.4507 185.024 68.7137 185.104 68.1219C185.183 67.5301 185.405 66.9698 185.768 66.4408C186.131 65.9118 186.703 65.5131 187.509 65.2222C188.608 64.8277 189.608 64.9286 190.513 65.4774C191.418 66.0262 192.11 66.9689 192.592 68.2581C193.072 69.5949 193.129 70.7661 192.787 71.7969C192.445 72.8276 191.734 73.5766 190.678 74.0687L189.698 71.3464C190.117 71.1065 190.446 70.7902 190.612 70.3699C190.802 69.9509 190.779 69.4729 190.592 68.9385C190.425 68.4766 190.156 68.1285 189.807 67.9431C189.459 67.7338 189.052 67.736 188.588 67.902C188.222 68.0256 187.947 68.2494 187.786 68.5746C187.626 68.876 187.512 69.2275 187.49 69.6316C187.469 70.0358 187.441 70.5588 187.478 71.2045C187.478 72.1104 187.461 72.8724 187.381 73.4879C187.325 74.081 187.102 74.6652 186.715 75.1929C186.352 75.7219 185.755 76.1431 184.925 76.4327C184.246 76.5873 183.597 76.6481 182.933 76.5174Z" fill="#242F65"/>
<path d="M198.249 99.671L196.111 99.7957L195.789 94.1522L192.185 94.3658L192.448 98.8855L190.381 99.014L190.119 94.4942L184.449 94.8362L184.281 92.1571L197.756 91.3723L198.249 99.671Z" fill="#242F65"/>
<path d="M195.932 118C195.189 118.914 194.268 119.58 193.12 119.996C191.972 120.412 190.77 120.514 189.463 120.326C188.157 120.113 187.032 119.648 186.066 118.905C185.1 118.163 184.431 117.221 184.011 116.126C183.59 115.031 183.485 113.857 183.671 112.603C183.88 111.375 184.346 110.279 185.089 109.365C185.832 108.451 186.777 107.786 187.901 107.369C189.049 106.953 190.251 106.85 191.581 107.064C192.887 107.277 194.012 107.742 194.978 108.484C195.92 109.226 196.614 110.145 197.033 111.264C197.454 112.359 197.559 113.533 197.372 114.787C197.186 116.04 196.651 117.085 195.932 118ZM194.657 112.258C194.404 111.625 193.954 111.076 193.355 110.639C192.755 110.202 192.004 109.924 191.125 109.781C190.247 109.639 189.454 109.692 188.723 109.916C188.017 110.141 187.422 110.514 186.986 111.063C186.551 111.588 186.252 112.264 186.14 113.021C186.027 113.778 186.085 114.496 186.337 115.153C186.59 115.81 187.041 116.335 187.64 116.772C188.24 117.209 188.991 117.487 189.869 117.63C190.748 117.772 191.541 117.719 192.271 117.495C192.978 117.27 193.574 116.873 194.009 116.348C194.444 115.823 194.743 115.147 194.855 114.39C194.992 113.611 194.935 112.893 194.657 112.258Z" fill="#242F65"/>
<path d="M178.674 131.815L184.697 130.681L185.115 129.583L180.182 127.771L181.107 125.245L193.766 129.9L191.978 134.716C191.42 136.189 190.65 137.173 189.665 137.669C188.657 138.163 187.578 138.201 186.403 137.781C185.44 137.42 184.751 136.859 184.289 136.095C183.827 135.332 183.685 134.394 183.838 133.33L177.615 134.62L178.674 131.815ZM186.853 130.224L186.095 132.305C185.563 133.755 185.944 134.705 187.212 135.178C187.822 135.401 188.373 135.407 188.84 135.169C189.308 134.932 189.693 134.452 189.947 133.726L190.704 131.645L186.853 130.224Z" fill="#242F65"/>
<path d="M166.623 155.324C166.369 154.691 166.309 154.02 166.445 153.264C166.581 152.509 166.932 151.764 167.524 150.985C168.092 150.229 168.745 149.644 169.461 149.253C170.176 148.862 170.905 148.662 171.671 148.655C172.437 148.672 173.143 148.9 173.839 149.319L172.114 151.587C171.627 151.299 171.153 151.202 170.621 151.293C170.113 151.385 169.667 151.672 169.282 152.152C168.948 152.587 168.804 153.032 168.855 153.44C168.905 153.848 169.125 154.217 169.517 154.501C169.838 154.756 170.191 154.87 170.576 154.843C170.937 154.815 171.301 154.715 171.647 154.519C171.993 154.322 172.463 154.037 173.033 153.663C173.755 153.153 174.397 152.782 174.938 152.524C175.478 152.267 176.083 152.156 176.729 152.167C177.375 152.177 178.031 152.45 178.698 152.963C179.619 153.655 180.099 154.539 180.138 155.614C180.176 156.689 179.76 157.763 178.936 158.84C178.086 159.963 177.114 160.674 176.047 160.927C174.98 161.18 173.96 161.007 172.986 160.407L174.737 158.092C175.18 158.33 175.607 158.401 176.066 158.33C176.525 158.259 176.922 157.994 177.257 157.535C177.566 157.146 177.706 156.748 177.68 156.342C177.654 155.935 177.457 155.591 177.042 155.282C176.719 155.051 176.39 154.938 176.053 154.968C175.692 154.996 175.352 155.097 175.006 155.293C174.66 155.489 174.215 155.752 173.669 156.128C172.899 156.635 172.257 157.007 171.715 157.288C171.175 157.545 170.569 157.68 169.923 157.669C169.277 157.659 168.597 157.384 167.906 156.87C167.28 156.479 166.877 155.957 166.623 155.324Z" fill="#242F65"/>
<path d="M161.184 175.179C159.791 175.248 158.448 174.843 157.202 173.966L159.335 172.125C160.035 172.472 160.77 172.607 161.493 172.526C162.239 172.446 162.928 172.102 163.581 171.54C164.109 171.068 164.497 170.516 164.675 169.882C164.852 169.248 164.865 168.557 164.687 167.856C164.485 167.154 164.09 166.466 163.503 165.791C162.916 165.139 162.295 164.653 161.616 164.355C160.938 164.057 160.272 163.974 159.595 164.081C158.919 164.188 158.33 164.466 157.778 164.938C157.125 165.499 156.708 166.144 156.525 166.874C156.343 167.603 156.376 168.32 156.624 169.072L154.489 170.937C153.771 169.588 153.556 168.217 153.821 166.849C154.085 165.48 154.846 164.233 156.126 163.133C157.105 162.279 158.138 161.762 159.275 161.56C160.411 161.359 161.507 161.465 162.61 161.881C163.712 162.321 164.705 163.018 165.562 164.017C166.442 165.017 167.031 166.098 167.306 167.233C167.581 168.368 167.545 169.486 167.177 170.563C166.808 171.64 166.158 172.607 165.179 173.461C163.925 174.515 162.577 175.11 161.184 175.179Z" fill="#242F65"/>
<path d="M140.068 174.199L145.389 177.247L146.427 176.659L143.844 172.087L146.189 170.782L152.797 182.505L148.305 185.008C146.948 185.77 145.713 186.014 144.625 185.765C143.537 185.517 142.687 184.828 142.074 183.746C141.571 182.861 141.402 181.97 141.569 181.097C141.735 180.224 142.209 179.415 143.037 178.696L137.452 175.657L140.068 174.199ZM147.346 178.281L145.42 179.371C144.088 180.111 143.724 181.093 144.404 182.273C144.733 182.839 145.145 183.195 145.641 183.316C146.138 183.438 146.742 183.327 147.434 182.935L149.383 181.847L147.346 178.281Z" fill="#242F65"/>
<path d="M126.562 193.101C125.402 192.848 124.402 192.294 123.511 191.484C122.62 190.674 122.006 189.616 121.618 188.356C121.23 187.095 121.151 185.875 121.406 184.697C121.66 183.518 122.193 182.498 123.005 181.635C123.818 180.772 124.832 180.159 126.025 179.793C127.242 179.429 128.418 179.372 129.578 179.625C130.738 179.877 131.738 180.431 132.628 181.265C133.517 182.099 134.133 183.133 134.543 184.418C134.954 185.704 135.01 186.899 134.756 188.077C134.501 189.256 133.968 190.276 133.156 191.139C132.344 192.002 131.353 192.617 130.136 192.981C128.897 193.32 127.721 193.377 126.562 193.101ZM131.21 189.462C131.669 188.938 131.965 188.31 132.1 187.578C132.235 186.846 132.157 186.056 131.891 185.207C131.625 184.358 131.231 183.67 130.709 183.118C130.186 182.589 129.583 182.223 128.921 182.069C128.235 181.913 127.539 181.948 126.784 182.17C126.03 182.392 125.412 182.764 124.953 183.288C124.494 183.812 124.197 184.44 124.062 185.172C123.928 185.904 124.005 186.695 124.271 187.543C124.538 188.392 124.932 189.08 125.453 189.633C125.976 190.161 126.579 190.527 127.265 190.683C127.952 190.838 128.648 190.804 129.426 190.583C130.134 190.335 130.728 189.961 131.21 189.462Z" fill="#242F65"/>
<path d="M110.99 185.12L106.488 185.572L106.285 183.535L113.485 182.798L114.88 196.175L112.207 196.462L110.99 185.12Z" fill="#242F65"/>
<path d="M97.5356 185.501L92.9986 185.26L93.1074 183.215L100.318 183.623L99.579 197.053L96.8807 196.909L97.5356 185.501Z" fill="#242F65"/>
<path d="M82.0634 195L84.6092 181.809L87.2647 182.308L84.7176 195.523L82.0634 195Z" fill="#242F65"/>
<path d="M67.2744 176.357L69.8103 177.303L72.2838 187.972L75.4703 179.392L78.0062 180.337L73.3127 192.938L70.7755 192.016L68.3297 181.277L65.1155 189.927L62.5796 188.981L67.2744 176.357Z" fill="#242F65"/>
<path d="M45.9149 178.153C45.4553 176.889 45.4759 175.602 45.9765 174.294L48.3375 175.826C48.2305 176.488 48.317 177.113 48.5945 177.747C48.8733 178.358 49.3482 178.884 50.0192 179.325C50.6676 179.741 51.35 179.968 52.0424 180.005C52.7349 180.042 53.4149 179.863 54.0573 179.492C54.6996 179.121 55.2566 178.555 55.7508 177.818C56.5317 176.644 56.8073 175.514 56.6016 174.43C56.3958 173.347 55.7489 172.454 54.6368 171.751C53.8264 171.231 52.9756 171.019 52.0845 171.115C51.1934 171.21 50.38 171.644 49.6471 172.368L53.4657 174.859L52.3981 176.471L46.6809 172.758L48.1131 170.593C48.7694 169.961 49.5136 169.476 50.3935 169.141C51.2734 168.807 52.2122 168.713 53.2126 168.814C54.213 168.915 55.1982 169.301 56.1708 169.925C57.2815 170.652 58.0969 171.53 58.6408 172.56C59.1846 173.59 59.3891 174.698 59.2793 175.86C59.1696 177.022 58.7494 178.168 58.0201 179.274C57.2895 180.403 56.4069 181.238 55.3711 181.803C54.3353 182.368 53.2443 182.62 52.0742 182.557C50.9042 182.495 49.7757 182.101 48.6649 181.375C47.2991 180.491 46.3744 179.417 45.9149 178.153Z" fill="#242F65"/>
<path d="M33.7302 169.971L40.5507 163.301L42.2154 164.868L35.8962 172.017L33.7302 169.971ZM41.49 161.849L43.4186 159.806L45.5156 161.801L43.5882 163.82L41.49 161.849Z" fill="#242F65"/>
<path d="M22.1696 153.669C22.1927 152.335 22.6644 151.12 23.5823 150.072L25.2568 152.355C24.9147 152.933 24.7851 153.569 24.8213 154.239C24.8814 154.91 25.1338 155.567 25.6023 156.212C26.0722 156.833 26.6225 157.291 27.2546 157.563C27.8867 157.835 28.5766 157.919 29.3019 157.791C30.0271 157.663 30.7624 157.344 31.4853 156.811C32.6318 155.966 33.2806 155.023 33.4821 153.937C33.6597 152.85 33.3798 151.81 32.5984 150.743C32.0168 149.973 31.3018 149.458 30.4271 149.245C29.5525 149.031 28.6375 149.126 27.7035 149.577L30.4056 153.249L28.8368 154.381L24.7942 148.897L26.8873 147.364C27.7207 147.003 28.593 146.811 29.5507 146.814C30.4845 146.816 31.4057 147.056 32.2916 147.508C33.1775 147.961 33.9778 148.671 34.6713 149.59C35.4526 150.656 35.9211 151.754 36.0501 152.929C36.1804 154.08 36.0016 155.191 35.4897 156.261C34.9778 157.33 34.1869 158.242 33.1159 159.019C32.0448 159.797 30.9173 160.285 29.7345 160.46C28.577 160.613 27.4584 160.482 26.3815 160.02C25.3046 159.557 24.3874 158.793 23.606 157.726C22.6501 156.34 22.1691 155.028 22.1696 153.669Z" fill="#242F65"/>
<path d="M16.4534 141.373L19.6211 139.897L17.6004 135.569L19.467 134.691L21.4878 139.019L24.7774 137.501L22.5205 132.66L24.484 131.764L27.8812 139.025L15.6303 144.691L12.2344 137.406L14.174 136.508L16.4534 141.373Z" fill="#242F65"/>
<path d="M7.00071 120.558L9.06585 120L10.0248 123.58L21.0028 120.683L21.7032 123.271L10.7252 126.168L11.6842 129.747L9.61907 130.305L7.00071 120.558Z" fill="#242F65"/>
<path d="M5.09302 100.169L18.6025 100.101L18.6267 102.796L5.11723 102.864L5.09302 100.169Z" fill="#242F65"/>
<path d="M20.5625 82.1579L20.1342 84.8052L10.1247 89.3029L19.1946 90.7629L18.7664 93.4103L5.42228 91.2698L5.8505 88.6225L15.9317 84.1286L6.79014 82.6647L7.21836 80.0174L20.5625 82.1579Z" fill="#242F65"/>
<path d="M17.4115 53.6203L19.3253 54.5565L17.6639 57.8773L27.8374 62.9006L26.6312 65.3158L16.4578 60.2925L14.7977 63.5894L12.8839 62.6532L17.4115 53.6203Z" fill="#242F65"/>
<path d="M28.3782 39.2323C29.4794 38.7903 30.6118 38.6598 31.8233 38.8435C33.0109 39.0259 34.1331 39.5385 35.1672 40.3564C36.2012 41.1744 36.9638 42.1447 37.4309 43.2662C37.8981 44.3877 38.0297 45.5152 37.8709 46.6988C37.6895 47.8573 37.2254 48.9293 36.4295 49.9359C35.6587 50.92 34.7108 51.6325 33.6097 52.0745C32.5086 52.5166 31.3761 52.647 30.1646 52.4634C28.977 52.281 27.8549 51.7683 26.7969 50.9491C25.7628 50.1312 25.0003 49.1608 24.5558 48.0644C24.0886 46.9429 23.957 45.8154 24.1145 44.6556C24.2959 43.4971 24.7613 42.4013 25.5559 41.4185C26.3531 40.3881 27.301 39.6756 28.3782 39.2323ZM26.6658 44.8629C26.5813 45.5497 26.6879 46.2468 27.012 46.9077C27.3347 47.5924 27.8297 48.1909 28.5421 48.7533C29.2558 49.2919 29.9545 49.6629 30.6897 49.7973C31.4236 49.9556 32.1211 49.8974 32.781 49.6464C33.441 49.3954 33.9903 48.9717 34.4782 48.354C34.966 47.7362 35.2641 47.0846 35.3486 46.3977C35.433 45.7108 35.3252 45.0375 35.0024 44.3528C34.6796 43.6681 34.1846 43.0696 33.4722 42.5072C32.7598 41.9448 32.0599 41.5977 31.3247 41.4632C30.5908 41.3049 29.8932 41.3632 29.2333 41.6142C28.5734 41.8651 28.0001 42.2876 27.5123 42.9053C27.0483 43.5243 26.7502 44.176 26.6658 44.8629Z" fill="#242F65"/>
<path d="M38.4258 28.1806L43.4409 34.2883C44.1155 35.1109 44.7852 35.5757 45.4978 35.6851C46.1865 35.7933 46.8929 35.5687 47.568 35.0324C48.2431 34.4962 48.5877 33.8708 48.6256 33.1576C48.6384 32.4669 48.3207 31.6871 47.6687 30.8896L42.6536 24.7818L44.7305 23.1043L49.7456 29.2121C50.532 30.1837 51.0319 31.14 51.1962 32.1024C51.3844 33.066 51.2885 33.9668 50.9087 34.8049C50.5289 35.6429 49.9379 36.3982 49.1371 37.047C47.8849 38.077 46.5689 38.5076 45.2116 38.3639C43.8543 38.2201 42.5789 37.437 41.3867 35.9909L36.3716 29.8831L38.4258 28.1806Z" fill="#242F65"/>
<path d="M62.2226 14.3319C63.5975 14.5958 64.8038 15.3275 65.7963 16.477L63.2621 17.7487C62.6665 17.2402 62.0118 16.9431 61.2515 16.8312C60.5138 16.7442 59.7634 16.895 58.9765 17.2823C58.3367 17.6058 57.8577 18.0571 57.4918 18.6337C57.1497 19.2115 56.9949 19.8708 57.0047 20.5865C57.0132 21.326 57.2367 22.077 57.6487 22.8856C58.038 23.6692 58.5317 24.2915 59.1311 24.7287C59.7065 25.1646 60.3399 25.4128 61.0311 25.4735C61.6984 25.5328 62.352 25.4007 62.9919 25.0771C63.7549 24.6886 64.3332 24.1711 64.679 23.5219C65.0488 22.8741 65.1822 22.166 65.1046 21.3751L67.6388 20.1034C67.9901 21.6002 67.8929 22.9777 67.2754 24.2323C66.6805 25.5118 65.6206 26.5282 64.1197 27.2828C62.9633 27.8649 61.8245 28.1143 60.6783 28.0533C59.5321 27.9923 58.4753 27.6023 57.5291 26.9321C56.5604 26.2368 55.7953 25.314 55.1874 24.1374C54.5808 22.9369 54.2833 21.7768 54.2988 20.5856C54.313 19.4181 54.61 18.3373 55.235 17.3931C55.8373 16.4239 56.7399 15.6613 57.8964 15.0792C59.3986 14.3009 60.8251 14.043 62.2226 14.3319Z" fill="#242F65"/>
<path d="M82.9981 6.42564L86.3757 19.4553L83.7538 20.1263L82.2827 14.4694L76.6744 15.9113L78.1454 21.5682L75.5247 22.2155L72.1471 9.18588L74.7691 8.51483L76.1409 13.785L81.7242 12.3656L80.3523 7.09542L82.9981 6.42564Z" fill="#242F65"/>
<path d="M100.051 2.77993L101.927 7.12333L106.572 8.03802L103.007 11.1383L103.547 15.8397L99.4844 13.4302L95.1892 15.395L96.2252 10.7774L93.0089 7.3163L97.7246 6.8997L100.051 2.77993Z" fill="#F3764F"/>
</svg>
