<svg width="95" height="24" viewBox="0 0 95 24" fill="none" xmlns="http://www.w3.org/2000/svg">
<path d="M1.8874 18.9746V6.28461H7.4314C8.8234 6.28461 9.8974 6.61461 10.6534 7.27461C11.4214 7.93461 11.8054 8.85261 11.8054 10.0286C11.8054 10.8086 11.6314 11.4746 11.2834 12.0266C10.9474 12.5786 10.4614 13.0046 9.8254 13.3046C9.1894 13.5926 8.4394 13.7366 7.5754 13.7366L7.8274 13.3946H8.4394C8.9434 13.3946 9.3934 13.5266 9.7894 13.7906C10.1854 14.0546 10.5094 14.4566 10.7614 14.9966L12.6154 18.9746H10.0594L8.1874 14.8526C8.0194 14.4326 7.7614 14.1566 7.4134 14.0246C7.0774 13.8926 6.6694 13.8266 6.1894 13.8266H4.2094V18.9746H1.8874ZM4.2094 12.1166H7.0534C7.8694 12.1166 8.4874 11.9486 8.9074 11.6126C9.3394 11.2646 9.5554 10.7606 9.5554 10.1006C9.5554 9.44061 9.3394 8.94261 8.9074 8.60661C8.4874 8.27061 7.8694 8.10261 7.0534 8.10261H4.2094V12.1166ZM18.5096 19.1546C16.9856 19.1546 15.7916 18.7346 14.9276 17.8946C14.0636 17.0546 13.6316 15.9026 13.6316 14.4386C13.6316 13.4906 13.8176 12.6626 14.1896 11.9546C14.5616 11.2466 15.0776 10.6946 15.7376 10.2986C16.4096 9.90261 17.1896 9.70461 18.0776 9.70461C18.9536 9.70461 19.6856 9.89061 20.2736 10.2626C20.8616 10.6346 21.3056 11.1566 21.6056 11.8286C21.9176 12.5006 22.0736 13.2866 22.0736 14.1866V14.7806H15.4496V13.5926H20.4716L20.1656 13.8446C20.1656 13.0046 19.9856 12.3626 19.6256 11.9186C19.2776 11.4746 18.7676 11.2526 18.0956 11.2526C17.3516 11.2526 16.7756 11.5166 16.3676 12.0446C15.9716 12.5726 15.7736 13.3106 15.7736 14.2586V14.4926C15.7736 15.4766 16.0136 16.2146 16.4936 16.7066C16.9856 17.1866 17.6756 17.4266 18.5636 17.4266C19.0796 17.4266 19.5596 17.3606 20.0036 17.2286C20.4596 17.0846 20.8916 16.8566 21.2996 16.5446L21.9656 18.0566C21.5336 18.4046 21.0176 18.6746 20.4176 18.8666C19.8176 19.0586 19.1816 19.1546 18.5096 19.1546ZM27.2189 19.1546C26.4389 19.1546 25.7189 19.0646 25.0589 18.8846C24.4109 18.6926 23.8649 18.4286 23.4209 18.0926L24.0509 16.5806C24.5069 16.8926 25.0109 17.1326 25.5629 17.3006C26.1149 17.4686 26.6729 17.5526 27.2369 17.5526C27.8369 17.5526 28.2809 17.4506 28.5689 17.2466C28.8689 17.0426 29.0189 16.7666 29.0189 16.4186C29.0189 16.1426 28.9229 15.9266 28.7309 15.7706C28.5509 15.6026 28.2569 15.4766 27.8489 15.3926L26.0489 15.0506C25.2809 14.8826 24.6929 14.5946 24.2849 14.1866C23.8889 13.7786 23.6909 13.2446 23.6909 12.5846C23.6909 12.0206 23.8409 11.5226 24.1409 11.0906C24.4529 10.6586 24.8909 10.3226 25.4549 10.0826C26.0309 9.83061 26.7029 9.70461 27.4709 9.70461C28.1429 9.70461 28.7729 9.79461 29.3609 9.97461C29.9609 10.1546 30.4649 10.4246 30.8729 10.7846L30.2249 12.2426C29.8529 11.9426 29.4269 11.7086 28.9469 11.5406C28.4669 11.3726 27.9989 11.2886 27.5429 11.2886C26.9189 11.2886 26.4629 11.4026 26.1749 11.6306C25.8869 11.8466 25.7429 12.1286 25.7429 12.4766C25.7429 12.7406 25.8269 12.9626 25.9949 13.1426C26.1749 13.3106 26.4509 13.4366 26.8229 13.5206L28.6229 13.8626C29.4269 14.0186 30.0329 14.2946 30.4409 14.6906C30.8609 15.0746 31.0709 15.6026 31.0709 16.2746C31.0709 16.8746 30.9089 17.3906 30.5849 17.8226C30.2609 18.2546 29.8109 18.5846 29.2349 18.8126C28.6589 19.0406 27.9869 19.1546 27.2189 19.1546ZM36.2725 19.1546C35.1565 19.1546 34.3225 18.8486 33.7705 18.2366C33.2185 17.6246 32.9425 16.6886 32.9425 15.4286V9.88461H35.1925V15.4106C35.1925 16.0826 35.3305 16.5806 35.6065 16.9046C35.8825 17.2166 36.3025 17.3726 36.8665 17.3726C37.5025 17.3726 38.0185 17.1566 38.4145 16.7246C38.8225 16.2926 39.0265 15.7226 39.0265 15.0146V9.88461H41.2765V18.9746H39.0805V17.1206H39.3325C39.0685 17.7686 38.6665 18.2726 38.1265 18.6326C37.5985 18.9806 36.9805 19.1546 36.2725 19.1546ZM43.7191 18.9746V12.1526C43.7191 11.7806 43.7071 11.4026 43.6831 11.0186C43.6591 10.6346 43.6231 10.2566 43.5751 9.88461H45.7531L45.9331 11.6846H45.7171C45.9691 11.0606 46.3531 10.5746 46.8691 10.2266C47.3971 9.87861 48.0211 9.70461 48.7411 9.70461C49.4611 9.70461 50.0551 9.87861 50.5231 10.2266C51.0031 10.5626 51.3391 11.0906 51.5311 11.8106H51.2431C51.4951 11.1626 51.9091 10.6526 52.4851 10.2806C53.0611 9.89661 53.7211 9.70461 54.4651 9.70461C55.4851 9.70461 56.2471 10.0046 56.7511 10.6046C57.2551 11.2046 57.5071 12.1406 57.5071 13.4126V18.9746H55.2571V13.5026C55.2571 12.7826 55.1371 12.2666 54.8971 11.9546C54.6571 11.6306 54.2731 11.4686 53.7451 11.4686C53.1211 11.4686 52.6291 11.6906 52.2691 12.1346C51.9091 12.5666 51.7291 13.1546 51.7291 13.8986V18.9746H49.4791V13.5026C49.4791 12.7826 49.3591 12.2666 49.1191 11.9546C48.8791 11.6306 48.4951 11.4686 47.9671 11.4686C47.3431 11.4686 46.8511 11.6906 46.4911 12.1346C46.1431 12.5666 45.9691 13.1546 45.9691 13.8986V18.9746H43.7191ZM64.3006 19.1546C62.7766 19.1546 61.5826 18.7346 60.7186 17.8946C59.8546 17.0546 59.4226 15.9026 59.4226 14.4386C59.4226 13.4906 59.6086 12.6626 59.9806 11.9546C60.3526 11.2466 60.8686 10.6946 61.5286 10.2986C62.2006 9.90261 62.9806 9.70461 63.8686 9.70461C64.7446 9.70461 65.4766 9.89061 66.0646 10.2626C66.6526 10.6346 67.0966 11.1566 67.3966 11.8286C67.7086 12.5006 67.8646 13.2866 67.8646 14.1866V14.7806H61.2406V13.5926H66.2626L65.9566 13.8446C65.9566 13.0046 65.7766 12.3626 65.4166 11.9186C65.0686 11.4746 64.5586 11.2526 63.8866 11.2526C63.1426 11.2526 62.5666 11.5166 62.1586 12.0446C61.7626 12.5726 61.5646 13.3106 61.5646 14.2586V14.4926C61.5646 15.4766 61.8046 16.2146 62.2846 16.7066C62.7766 17.1866 63.4666 17.4266 64.3546 17.4266C64.8706 17.4266 65.3506 17.3606 65.7946 17.2286C66.2506 17.0846 66.6826 16.8566 67.0906 16.5446L67.7566 18.0566C67.3246 18.4046 66.8086 18.6746 66.2086 18.8666C65.6086 19.0586 64.9726 19.1546 64.3006 19.1546Z" fill="#242F65"/>
<path d="M89.2349 17.4667L89.3459 7.7095L79.5923 7.9974M88.248 8.8275L78.8359 18.4118" stroke="#FF774C" stroke-width="1.5" stroke-linecap="round" stroke-linejoin="round"/>
</svg>
