<svg width="208" height="213" viewBox="0 0 208 213" fill="none" xmlns="http://www.w3.org/2000/svg">
<path d="M128.365 6.6972L125.231 20.9443L122.405 20.2979L125.565 6.05078L128.365 6.6972Z" fill="#242F65"/>
<path d="M151.28 29.4515C150.663 29.8393 149.944 30.0203 149.122 30.0203C148.3 30.0203 147.426 29.7618 146.527 29.2705C145.628 28.7792 144.883 28.1845 144.344 27.5122C143.804 26.8141 143.47 26.0642 143.342 25.2627C143.214 24.4353 143.342 23.6337 143.676 22.8321L146.399 24.2801C146.193 24.8231 146.168 25.392 146.348 25.9091C146.527 26.4521 146.913 26.8658 147.504 27.2019C148.043 27.4864 148.531 27.5639 148.968 27.4346C149.405 27.3054 149.738 26.9951 149.97 26.5555C150.175 26.1677 150.252 25.754 150.149 25.3661C150.047 24.9783 149.867 24.6163 149.61 24.2801C149.353 23.944 148.968 23.4786 148.454 22.9614C147.812 22.2633 147.298 21.6427 146.913 21.1256C146.527 20.6085 146.296 19.9879 146.219 19.2898C146.142 18.5916 146.296 17.8418 146.707 17.0402C147.298 15.9284 148.146 15.2561 149.276 15.0492C150.406 14.8424 151.639 15.0751 152.924 15.7732C154.285 16.4972 155.184 17.4022 155.647 18.4882C156.109 19.5742 156.109 20.686 155.621 21.8496L152.872 20.3757C153.052 19.8845 153.052 19.3932 152.898 18.9278C152.744 18.4623 152.384 18.0745 151.845 17.7901C151.383 17.5315 150.92 17.4539 150.509 17.5573C150.098 17.6608 149.738 17.9452 149.507 18.4106C149.302 18.7985 149.25 19.1605 149.353 19.5225C149.456 19.8845 149.61 20.2465 149.893 20.5826C150.149 20.9187 150.535 21.3583 151.023 21.8754C151.691 22.5994 152.205 23.2458 152.59 23.763C152.975 24.2801 153.206 24.9007 153.309 25.6247C153.412 26.3228 153.232 27.0985 152.795 27.9259C152.384 28.5465 151.896 29.0636 151.28 29.4515Z" fill="#242F65"/>
<path d="M175.453 31.9856L166.154 43.1816L163.919 41.294L167.978 36.4329L163.225 32.4251L159.167 37.2862L156.932 35.4245L166.231 24.2285L168.466 26.0902L164.69 30.6151L169.442 34.623L173.218 30.098L175.453 31.9856Z" fill="#242F65"/>
<path d="M188.811 48.8435C188.965 50.1104 188.786 51.3516 188.272 52.541C187.758 53.7304 186.91 54.7647 185.78 55.6179C184.65 56.4712 183.417 57.0142 182.132 57.1694C180.848 57.3504 179.615 57.1694 178.433 56.6781C177.277 56.1609 176.275 55.3852 175.453 54.2734C174.631 53.1874 174.143 51.998 173.989 50.731C173.835 49.464 174.015 48.2229 174.528 47.0335C175.042 45.8441 175.89 44.8098 177.02 43.9307C178.15 43.0774 179.384 42.5602 180.668 42.3793C181.952 42.1983 183.185 42.3793 184.341 42.8705C185.497 43.3618 186.499 44.1634 187.321 45.2752C188.169 46.3871 188.657 47.5765 188.811 48.8435ZM183.417 45.4562C182.723 45.1718 181.978 45.0942 181.182 45.2494C180.385 45.3786 179.615 45.7665 178.844 46.3353C178.073 46.9042 177.508 47.5765 177.149 48.3005C176.789 49.0245 176.661 49.7743 176.738 50.5242C176.815 51.274 177.123 51.998 177.637 52.6703C178.15 53.3425 178.741 53.8338 179.435 54.1183C180.129 54.4027 180.873 54.4802 181.67 54.3251C182.466 54.1958 183.237 53.808 184.008 53.2391C184.778 52.6703 185.343 51.998 185.703 51.274C186.063 50.55 186.191 49.8002 186.114 49.0503C186.037 48.3005 185.729 47.5765 185.215 46.9042C184.727 46.2319 184.11 45.7406 183.417 45.4562Z" fill="#242F65"/>
<path d="M197.879 62.987L190.121 66.4777C189.094 66.9431 188.4 67.5378 188.092 68.2101C187.784 68.9082 187.809 69.6839 188.195 70.5631C188.58 71.4163 189.119 71.9593 189.839 72.192C190.558 72.4247 191.457 72.2955 192.485 71.83L200.243 68.3394L201.424 70.9768L193.666 74.4674C192.433 75.0104 191.303 75.2431 190.25 75.1656C189.196 75.088 188.297 74.726 187.527 74.1054C186.756 73.4849 186.139 72.6575 185.677 71.6232C184.958 70.0201 184.881 68.5204 185.394 67.1499C185.934 65.7537 187.09 64.6677 188.94 63.8403L196.698 60.3496L197.879 62.987Z" fill="#242F65"/>
<path d="M193.255 86.6993L194.385 91.4828L192.228 91.9999L190.455 84.398L204.584 81.0625L205.252 83.9067L193.255 86.6993Z" fill="#242F65"/>
<path d="M197.186 110.564C196.081 109.995 195.182 109.142 194.54 108.03C193.897 106.918 193.538 105.547 193.486 103.97L193.307 98.773L207.795 98.2559L207.975 103.453C208.026 105.03 207.769 106.427 207.23 107.59C206.665 108.754 205.868 109.659 204.79 110.305C203.711 110.952 202.478 111.288 201.013 111.339C199.6 111.391 198.316 111.133 197.186 110.564ZM197.417 107.228C198.265 108.056 199.446 108.443 200.911 108.392C202.4 108.34 203.556 107.875 204.327 106.97C205.123 106.09 205.483 104.849 205.432 103.272L205.355 101.255L195.978 101.591L196.055 103.608C196.132 105.185 196.569 106.401 197.417 107.228Z" fill="#242F65"/>
<path d="M192.638 132.181L191.354 136.912L189.222 136.318L191.277 128.768L205.277 132.646L204.507 135.464L192.638 132.181Z" fill="#242F65"/>
<path d="M194.514 158.477C193.461 159.175 192.279 159.563 190.969 159.614C189.685 159.666 188.4 159.382 187.116 158.735C185.831 158.089 184.855 157.21 184.11 156.124C183.391 155.038 182.98 153.848 182.928 152.581C182.851 151.314 183.134 150.047 183.75 148.832C184.367 147.617 185.215 146.66 186.268 145.962C187.321 145.264 188.503 144.876 189.813 144.824C191.123 144.773 192.408 145.057 193.666 145.703C194.925 146.35 195.927 147.229 196.646 148.315C197.366 149.401 197.751 150.59 197.828 151.857C197.879 153.124 197.622 154.391 197.006 155.607C196.415 156.822 195.593 157.779 194.514 158.477ZM195.156 152.116C195.105 151.366 194.848 150.668 194.36 149.996C193.872 149.349 193.204 148.806 192.356 148.367C191.508 147.927 190.661 147.72 189.864 147.72C189.068 147.72 188.349 147.927 187.707 148.315C187.064 148.729 186.551 149.298 186.165 150.073C185.78 150.823 185.626 151.599 185.677 152.349C185.729 153.098 185.985 153.797 186.473 154.469C186.962 155.115 187.629 155.658 188.477 156.098C189.325 156.537 190.173 156.744 190.969 156.744C191.765 156.744 192.485 156.537 193.127 156.15C193.769 155.736 194.257 155.167 194.642 154.391C195.028 153.616 195.208 152.866 195.156 152.116Z" fill="#242F65"/>
<path d="M186.293 172.388L174.99 167.941L181.258 178.387L179.255 180.766L171.445 167.398L173.834 164.528L188.246 169.983L186.293 172.388Z" fill="#242F65"/>
<path d="M168.543 187.255L166.205 184.307L162.198 187.539L160.81 185.781L164.818 182.549L162.377 179.472L157.882 183.092L156.443 181.256L163.2 175.826L172.242 187.255L165.486 192.685L164.047 190.875L168.543 187.255Z" fill="#242F65"/>
<path d="M137.819 207.191L136.971 205.045L140.696 203.545L136.149 192.143L138.847 191.057L143.394 202.46L147.093 200.96L147.941 203.106L137.819 207.191Z" fill="#242F65"/>
<path d="M117.961 211.043C116.78 210.603 115.778 209.879 114.956 208.871C114.134 207.863 113.62 206.647 113.363 205.225C113.132 203.803 113.235 202.484 113.671 201.243C114.108 200.002 114.827 198.994 115.804 198.166C116.78 197.365 117.936 196.822 119.272 196.615C120.607 196.382 121.866 196.486 123.074 196.925C124.255 197.365 125.283 198.089 126.079 199.123C126.901 200.131 127.415 201.373 127.672 202.769C127.903 204.191 127.8 205.51 127.364 206.725C126.927 207.966 126.208 208.975 125.231 209.776C124.255 210.578 123.099 211.095 121.763 211.327C120.428 211.56 119.169 211.483 117.961 211.043ZM123.433 207.759C123.998 207.268 124.409 206.647 124.641 205.872C124.872 205.096 124.923 204.243 124.743 203.286C124.589 202.329 124.255 201.528 123.793 200.881C123.305 200.235 122.714 199.769 122.02 199.485C121.327 199.201 120.556 199.149 119.708 199.304C118.861 199.459 118.167 199.769 117.602 200.261C117.037 200.752 116.626 201.373 116.394 202.148C116.163 202.924 116.112 203.777 116.292 204.734C116.446 205.691 116.78 206.492 117.242 207.139C117.73 207.785 118.321 208.251 119.015 208.535C119.708 208.794 120.479 208.871 121.327 208.716C122.174 208.561 122.868 208.251 123.433 207.759Z" fill="#242F65"/>
<path d="M91.7328 199.357L86.9033 198.633L87.2116 196.436L94.8925 197.573L92.786 212.027L89.9089 211.613L91.7328 199.357Z" fill="#242F65"/>
<path d="M73.9566 205.589L75.1126 201.994L70.2317 200.391L70.9253 198.271L75.8062 199.874L77.0136 196.125L71.5419 194.341L72.2612 192.117L80.4816 194.832L75.986 208.717L67.7656 206.028L68.4849 203.83L73.9566 205.589Z" fill="#242F65"/>
<path d="M56.4372 187.463L61.4979 190.359L63.8356 188.316L66.5072 189.842L54.7932 199.745L51.916 198.116L54.3564 182.912L57.0281 184.438L56.4372 187.463ZM56.0262 189.79L54.8702 196.203L59.7511 191.884L56.0262 189.79Z" fill="#242F65"/>
<path d="M43.4387 173.81L42.2313 180.326L43.1818 181.179L46.9323 176.913L49.1159 178.852L39.5083 189.79L35.3724 186.092C34.1137 184.954 33.4201 183.791 33.2916 182.601C33.1889 181.386 33.5742 180.274 34.4476 179.266C35.1669 178.439 36.0146 177.947 36.9651 177.792C37.9156 177.637 38.8918 177.844 39.9193 178.439L41.0496 171.664L43.4387 173.81ZM41.846 182.705L40.0734 181.102C38.8404 179.99 37.7358 179.99 36.7596 181.102C36.2972 181.619 36.0917 182.188 36.1174 182.731C36.1688 183.3 36.5027 183.868 37.1449 184.437L38.9431 186.04L41.846 182.705Z" fill="#242F65"/>
<path d="M28.9755 156.512L30.6966 158.865L26.6121 170.009L34.55 164.114L36.2711 166.467L24.5827 175.129L22.8616 172.776L27.0231 161.58L19.0083 167.527L17.2871 165.174L28.9755 156.512Z" fill="#242F65"/>
<path d="M15.592 133.112L17.3388 138.697L20.4214 138.8L21.3462 141.748L6.06143 140.946L5.05957 137.766L17.159 128.328L18.0838 131.276L15.592 133.112ZM13.7424 134.534L8.52755 138.438L15.0011 138.645L13.7424 134.534Z" fill="#242F65"/>
<path d="M8.88689 112.116C9.47773 111.521 10.2227 111.185 11.0961 111.107C12.3035 111.004 13.3054 111.314 14.076 112.064C14.8467 112.814 15.3091 113.978 15.4632 115.529L16.0284 121.76L1.59128 123.105L1.02613 116.977C0.897684 115.503 1.10319 114.34 1.66835 113.512C2.2335 112.659 3.10692 112.193 4.26291 112.064C5.16202 111.987 5.93268 112.142 6.54921 112.581C7.16574 112.995 7.60245 113.59 7.83365 114.34C7.9364 113.46 8.29605 112.711 8.88689 112.116ZM7.39694 119.64L7.16574 117.029C7.08868 116.305 6.88317 115.762 6.52352 115.426C6.16388 115.089 5.70148 114.934 5.08495 114.986C4.49411 115.038 4.03171 115.27 3.74914 115.658C3.46656 116.072 3.33812 116.641 3.41518 117.417L3.64638 120.002L7.39694 119.64ZM12.509 114.598C12.1237 114.21 11.6356 114.055 10.9934 114.107C10.3511 114.159 9.86306 114.417 9.5548 114.883C9.24653 115.348 9.11809 115.943 9.19515 116.718L9.45204 119.459L13.4338 119.097L13.1769 116.331C13.0998 115.555 12.8686 114.986 12.509 114.598Z" fill="#242F65"/>
<path d="M2.74692 91.3276C3.51759 90.3192 4.49376 89.5435 5.70113 89.0522C6.9085 88.5609 8.21863 88.4058 9.63151 88.5868C11.0444 88.7678 12.2775 89.259 13.3307 90.0348C14.3839 90.8105 15.1546 91.793 15.617 92.9824C16.1051 94.1718 16.2592 95.4388 16.0794 96.7834C15.8996 98.1279 15.4372 99.3174 14.6665 100.352C13.8958 101.36 12.9197 102.136 11.7123 102.627C10.5049 103.118 9.1948 103.273 7.78192 103.092C6.36904 102.911 5.13598 102.42 4.10843 101.644C3.05519 100.869 2.31021 99.8862 1.82213 98.6968C1.33404 97.5074 1.17991 96.2404 1.35973 94.8958C1.51386 93.5254 1.97626 92.336 2.74692 91.3276ZM4.28825 97.5332C4.59651 98.2314 5.05891 98.8002 5.72682 99.2656C6.39473 99.7311 7.21677 100.015 8.14156 100.145C9.09205 100.274 9.93977 100.196 10.7104 99.9379C11.4811 99.6793 12.0719 99.2398 12.5343 98.6451C12.9967 98.0504 13.2793 97.3264 13.3821 96.4731C13.4848 95.6198 13.4078 94.8441 13.0995 94.1718C12.7912 93.4737 12.3288 92.9049 11.6609 92.4394C10.993 91.974 10.1967 91.6896 9.22049 91.5603C8.27001 91.431 7.42228 91.5086 6.65161 91.7672C5.88095 92.0257 5.29011 92.4653 4.82771 93.06C4.36531 93.6547 4.08274 94.3787 3.97998 95.232C3.87723 96.0853 3.97998 96.861 4.28825 97.5332Z" fill="#242F65"/>
<path d="M6.08682 74.8553L14.076 77.803C15.155 78.1908 16.0284 78.2684 16.7477 77.984C17.4669 77.6995 17.9807 77.1307 18.289 76.2257C18.5972 75.3466 18.5972 74.5709 18.2376 73.8986C17.878 73.2263 17.1587 72.7092 16.1054 72.2955L8.11623 69.3478L9.1181 66.6328L17.1073 69.5805C18.366 70.0459 19.3422 70.6665 20.0358 71.468C20.7294 72.2696 21.1404 73.1487 21.2689 74.1571C21.3973 75.1397 21.2432 76.174 20.8579 77.2341C20.267 78.8889 19.2908 80.0008 17.955 80.6214C16.6192 81.2419 15.0008 81.2161 13.1255 80.4921L5.08496 77.5702L6.08682 74.8553Z" fill="#242F65"/>
<path d="M19.0343 48.6895L20.9866 49.9047L18.8801 53.3437L29.2584 59.8079L27.7427 62.2901L17.3645 55.8259L15.258 59.239L13.3057 58.0238L19.0343 48.6895Z" fill="#242F65"/>
<path d="M41.6143 24.9258L44.0291 35.3461L47.3429 39.2246L45.1337 41.138L41.8199 37.2595L31.9297 33.3034L34.4472 31.1056L40.9208 33.924L39.1225 27.046L41.6143 24.9258Z" fill="#242F65"/>
<path d="M59.3398 14.9722C60.6242 15.0239 61.7802 15.3859 62.8849 16.084C63.9895 16.7822 64.8629 17.7647 65.5308 19.0317C66.1987 20.2987 66.507 21.5915 66.507 22.9102C66.4813 24.2289 66.1216 25.4183 65.4537 26.5043C64.7858 27.5903 63.8353 28.4436 62.6537 29.09C61.4463 29.7364 60.2132 30.0209 58.9545 29.995C57.6957 29.9691 56.514 29.5813 55.4094 28.8832C54.3048 28.185 53.4314 27.1766 52.7635 25.9096C52.0956 24.6426 51.7873 23.3498 51.813 22.057C51.8387 20.7641 52.1983 19.5489 52.8662 18.4887C53.5341 17.4286 54.4846 16.5495 55.6663 15.903C56.8223 15.2566 58.0554 14.9463 59.3398 14.9722ZM55.1782 19.8333C54.7929 20.4797 54.6131 21.2037 54.6131 22.0052C54.6388 22.8068 54.87 23.6601 55.3067 24.5134C55.7434 25.3666 56.3085 26.0131 56.9764 26.4785C57.6443 26.9439 58.3379 27.2025 59.0829 27.2283C59.8279 27.2542 60.5729 27.0732 61.3435 26.6853C62.1142 26.2975 62.6537 25.7545 63.0647 25.1081C63.45 24.4616 63.6298 23.7377 63.6298 22.9361C63.6041 22.1345 63.3729 21.2813 62.9362 20.4538C62.4738 19.6006 61.9344 18.9541 61.2665 18.4629C60.5986 17.9716 59.905 17.7389 59.16 17.713C58.415 17.6872 57.67 17.8682 56.9251 18.256C56.1287 18.6697 55.5636 19.1869 55.1782 19.8333Z" fill="#242F65"/>
<path d="M74.5992 8.19727L76.8084 16.4715C77.1167 17.5833 77.5791 18.3331 78.1956 18.7727C78.8378 19.1864 79.6085 19.2898 80.5076 19.0313C81.4067 18.7986 82.0233 18.3331 82.3572 17.635C82.6912 16.9627 82.7169 16.0577 82.4086 14.9459L80.1737 6.67172L82.9481 5.92188L85.1573 14.1961C85.5169 15.4889 85.5683 16.6783 85.3114 17.6867C85.0802 18.721 84.5921 19.5743 83.8472 20.2465C83.1022 20.9188 82.2031 21.4101 81.1242 21.6945C79.4544 22.16 77.9644 22.0048 76.68 21.2808C75.3956 20.531 74.4964 19.1864 73.9827 17.2472L71.7734 8.97298L74.5992 8.19727Z" fill="#242F65"/>
<path d="M104.526 0L106.967 5.27479L112.67 6.25735L108.431 10.2134L109.253 15.9537L104.218 13.1353L99.0288 15.6951L100.159 10.0066L96.126 5.84364L101.855 5.14551L104.526 0Z" fill="#F3764F"/>
</svg>
