<svg width="197" height="198" viewBox="0 0 197 198" fill="none" xmlns="http://www.w3.org/2000/svg">
<path d="M120.965 16.1186C120.506 16.6278 119.902 16.9672 119.153 17.1855C118.403 17.3794 117.558 17.3794 116.615 17.1855C115.673 16.9915 114.851 16.6278 114.199 16.1429C113.547 15.658 113.039 15.076 112.725 14.3729C112.411 13.6698 112.314 12.9181 112.411 12.0938L115.238 12.6999C115.19 13.2576 115.311 13.7668 115.6 14.2032C115.89 14.6396 116.35 14.9306 116.978 15.0518C117.534 15.173 117.993 15.1245 118.355 14.8821C118.718 14.6396 118.935 14.3002 119.032 13.8395C119.128 13.4273 119.08 13.0636 118.887 12.7242C118.718 12.409 118.452 12.118 118.113 11.8756C117.775 11.6331 117.316 11.3421 116.712 10.9784C115.939 10.5178 115.311 10.1056 114.851 9.71765C114.392 9.32971 114.03 8.84478 113.764 8.23863C113.498 7.63248 113.474 6.92934 113.643 6.08072C113.885 4.94115 114.489 4.11678 115.455 3.63186C116.422 3.14694 117.582 3.04995 118.959 3.34091C120.361 3.65611 121.424 4.23802 122.1 5.08663C122.801 5.95949 123.067 6.95358 122.946 8.1174L120.071 7.487C120.095 6.97783 119.974 6.5414 119.708 6.17771C119.442 5.78977 119.032 5.54731 118.476 5.42608C117.993 5.32909 117.558 5.35334 117.195 5.54731C116.833 5.74128 116.615 6.08072 116.495 6.56565C116.446 6.97783 116.495 7.34152 116.664 7.65672C116.833 7.97192 117.099 8.23863 117.413 8.48109C117.727 8.72355 118.186 9.01451 118.766 9.35395C119.563 9.83888 120.192 10.2753 120.675 10.6632C121.158 11.0512 121.521 11.5361 121.786 12.1665C122.052 12.7727 122.076 13.5243 121.907 14.3729C121.738 15.0276 121.448 15.6095 120.965 16.1186Z" fill="#242F65"/>
<path d="M140.876 12.2635C141.552 13.5243 141.77 14.9063 141.48 16.4338L138.846 15.2942C138.87 14.4941 138.677 13.791 138.266 13.1363C137.855 12.5059 137.251 11.9968 136.454 11.6573C135.801 11.3664 135.125 11.2694 134.448 11.3664C133.772 11.4633 133.143 11.7543 132.588 12.2392C132.032 12.7241 131.573 13.3788 131.21 14.2274C130.848 15.0518 130.703 15.8277 130.727 16.5793C130.751 17.3309 130.969 17.9856 131.355 18.5432C131.742 19.1009 132.273 19.5373 132.926 19.8283C133.723 20.1677 134.496 20.2889 135.246 20.1435C135.995 19.998 136.647 19.6585 137.203 19.1009L139.837 20.2405C138.918 21.477 137.759 22.2771 136.381 22.6408C135.004 23.0045 133.53 22.8348 131.983 22.1559C130.799 21.6467 129.857 20.8951 129.18 19.9737C128.504 19.0281 128.117 17.9613 128.045 16.7733C127.972 15.5852 128.19 14.3729 128.721 13.1363C129.253 11.8998 130.002 10.9057 130.92 10.1298C131.838 9.37818 132.878 8.9175 134.013 8.79627C135.149 8.6508 136.333 8.84476 137.541 9.37818C139.088 10.0328 140.199 11.0027 140.876 12.2635Z" fill="#242F65"/>
<path d="M148.512 31.563L148.947 25.356L147.956 24.6771L144.912 29.0414L142.688 27.4654L150.517 16.2637L154.77 19.2459C156.075 20.1673 156.824 21.1614 157.066 22.2767C157.307 23.392 157.066 24.4589 156.341 25.5015C155.761 26.3501 155.012 26.8835 154.142 27.1259C153.272 27.3684 152.33 27.2714 151.315 26.835L150.977 33.2602L148.512 31.563ZM149.043 23.1496L150.88 24.4346C152.161 25.3317 153.2 25.2105 153.973 24.0709C154.359 23.5375 154.48 23.0041 154.384 22.4707C154.287 21.9373 153.9 21.4523 153.248 20.9917L151.412 19.7066L149.043 23.1496Z" fill="#242F65"/>
<path d="M171.177 34.9095C171.467 36.0733 171.419 37.2371 171.056 38.4009C170.694 39.5647 170.041 40.6073 169.051 41.5287C168.084 42.45 166.997 43.0562 165.813 43.3714C164.629 43.6623 163.445 43.6381 162.309 43.2987C161.173 42.9592 160.158 42.3046 159.288 41.3832C158.419 40.4619 157.839 39.4193 157.549 38.2555C157.259 37.0916 157.307 35.9278 157.67 34.7398C158.032 33.5759 158.709 32.5091 159.675 31.5878C160.642 30.6664 161.729 30.0603 162.913 29.7693C164.097 29.4783 165.257 29.5026 166.393 29.842C167.528 30.1815 168.543 30.8361 169.413 31.7575C170.307 32.7031 170.887 33.7457 171.177 34.9095ZM165.764 32.3394C165.088 32.1454 164.387 32.1454 163.662 32.3636C162.937 32.5819 162.236 32.994 161.584 33.6244C160.932 34.2548 160.472 34.9095 160.207 35.6369C159.941 36.34 159.893 37.0431 160.062 37.7463C160.207 38.4252 160.569 39.0798 161.125 39.6617C161.681 40.2436 162.285 40.6316 162.961 40.8255C163.638 41.0195 164.339 40.9953 165.064 40.7771C165.788 40.5588 166.489 40.1467 167.142 39.5163C167.794 38.8859 168.253 38.2312 168.519 37.5038C168.785 36.7764 168.833 36.0975 168.664 35.3944C168.519 34.7155 168.157 34.0609 167.601 33.479C167.069 32.9213 166.465 32.5334 165.764 32.3394Z" fill="#242F65"/>
<path d="M170.524 52.0997L173.013 55.9549L171.249 57.0945L167.311 50.9359L178.788 43.5166L180.262 45.82L170.524 52.0997Z" fill="#242F65"/>
<path d="M176.71 63.3739L178.595 67.5685L176.686 68.4171L173.689 61.7252L186.134 56.1001L187.245 58.5974L176.71 63.3739Z" fill="#242F65"/>
<path d="M185.482 91.6695C184.371 91.2573 183.477 90.5542 182.752 89.5843C182.027 88.5903 181.568 87.378 181.35 85.8989L180.649 81.0739L194.133 79.0615L194.833 83.8623C195.051 85.3413 194.954 86.6506 194.568 87.7901C194.181 88.9297 193.504 89.8753 192.586 90.5784C191.668 91.2816 190.508 91.7423 189.155 91.9362C187.802 92.2029 186.594 92.0817 185.482 91.6695ZM185.361 88.5418C186.255 89.2207 187.367 89.4631 188.744 89.2692C190.146 89.0752 191.161 88.4933 191.789 87.5962C192.441 86.6748 192.659 85.511 192.441 84.032L192.151 82.165L183.428 83.4501L183.694 85.317C183.936 86.7718 184.467 87.8386 185.361 88.5418Z" fill="#242F65"/>
<path d="M194.833 109.296C194.156 110.29 193.287 111.066 192.175 111.575C191.063 112.109 189.855 112.327 188.526 112.23C187.197 112.133 186.013 111.745 184.998 111.066C183.984 110.387 183.21 109.514 182.679 108.448C182.171 107.381 181.954 106.193 182.026 104.908C182.123 103.623 182.485 102.483 183.162 101.489C183.814 100.495 184.708 99.7189 185.82 99.2097C186.931 98.6763 188.14 98.4581 189.493 98.5551C190.822 98.6521 192.006 99.04 193.021 99.6947C194.036 100.374 194.809 101.246 195.34 102.313C195.848 103.38 196.065 104.568 195.993 105.853C195.872 107.162 195.51 108.302 194.833 109.296ZM193.069 103.574C192.755 102.944 192.272 102.434 191.619 102.047C190.967 101.659 190.194 101.44 189.3 101.368C188.405 101.295 187.608 101.416 186.907 101.707C186.207 101.998 185.651 102.434 185.264 103.016C184.853 103.598 184.636 104.277 184.588 105.077C184.539 105.877 184.66 106.581 184.974 107.235C185.288 107.866 185.772 108.375 186.424 108.763C187.076 109.151 187.85 109.369 188.744 109.442C189.638 109.514 190.435 109.393 191.136 109.102C191.837 108.811 192.392 108.375 192.779 107.793C193.19 107.211 193.407 106.532 193.456 105.732C193.504 104.908 193.383 104.204 193.069 103.574Z" fill="#242F65"/>
<path d="M188.309 138.416L176.372 130.997L177.411 127.796L187.608 128.427L179.006 122.898L180.045 119.722L194.06 120.765L193.142 123.577L182.437 122.292L191.643 128.16L190.725 130.997L179.827 130.318L189.227 135.603L188.309 138.416Z" fill="#242F65"/>
<path d="M166.635 148.599L168.085 146.272L179.176 146.005L171.322 141.083L172.772 138.755L184.347 146.005L182.897 148.333L171.733 148.551L179.659 153.521L178.209 155.849L166.635 148.599Z" fill="#242F65"/>
<path d="M159.579 175.585L158.153 173.961L160.956 171.439L153.32 162.832L155.35 161.013L162.986 169.621L165.789 167.123L167.239 168.748L159.579 175.585Z" fill="#242F65"/>
<path d="M144.622 184.629C143.438 184.653 142.302 184.338 141.239 183.732C140.176 183.126 139.306 182.228 138.629 181.065C137.952 179.901 137.59 178.713 137.566 177.476C137.542 176.24 137.832 175.124 138.412 174.082C139.016 173.039 139.861 172.191 140.949 171.536C142.036 170.881 143.196 170.566 144.38 170.542C145.564 170.518 146.7 170.833 147.763 171.439C148.826 172.069 149.696 172.942 150.373 174.106C151.049 175.27 151.412 176.458 151.412 177.67C151.436 178.883 151.146 180.022 150.566 181.065C149.962 182.107 149.116 182.956 148.029 183.611C146.965 184.289 145.806 184.629 144.622 184.629ZM148.319 179.925C148.657 179.295 148.802 178.616 148.754 177.864C148.705 177.113 148.439 176.337 148.005 175.561C147.545 174.785 146.99 174.179 146.361 173.767C145.733 173.354 145.057 173.136 144.356 173.136C143.655 173.136 142.954 173.33 142.278 173.742C141.577 174.155 141.07 174.664 140.731 175.294C140.393 175.924 140.248 176.603 140.296 177.355C140.345 178.107 140.61 178.883 141.07 179.658C141.529 180.434 142.084 181.04 142.713 181.453C143.341 181.865 144.018 182.059 144.718 182.083C145.419 182.083 146.12 181.889 146.796 181.477C147.473 181.065 147.98 180.556 148.319 179.925Z" fill="#242F65"/>
<path d="M114.272 183.78C114.465 183.126 114.852 182.544 115.456 182.035C116.036 181.525 116.809 181.162 117.751 180.919C118.694 180.701 119.564 180.653 120.385 180.798C121.207 180.943 121.907 181.259 122.487 181.744C123.067 182.229 123.502 182.883 123.768 183.659L120.941 184.338C120.748 183.805 120.433 183.417 119.974 183.15C119.515 182.883 118.984 182.81 118.38 182.98C117.824 183.101 117.437 183.368 117.22 183.732C117.002 184.095 116.93 184.508 117.051 184.968C117.147 185.381 117.34 185.696 117.655 185.914C117.945 186.132 118.307 186.278 118.718 186.35C119.129 186.423 119.66 186.496 120.361 186.544C121.255 186.617 122.004 186.738 122.584 186.884C123.188 187.029 123.72 187.32 124.203 187.732C124.686 188.169 125.049 188.799 125.242 189.624C125.508 190.763 125.314 191.757 124.662 192.63C124.01 193.479 122.995 194.085 121.642 194.4C120.24 194.74 119.032 194.667 118.041 194.182C117.051 193.697 116.35 192.921 115.987 191.806L118.839 191.127C119.032 191.588 119.322 191.927 119.733 192.169C120.143 192.388 120.627 192.436 121.183 192.315C121.666 192.194 122.028 191.975 122.27 191.636C122.511 191.297 122.56 190.884 122.439 190.399C122.342 190.012 122.149 189.721 121.859 189.502C121.569 189.308 121.231 189.163 120.82 189.09C120.433 189.017 119.902 188.945 119.225 188.896C118.307 188.799 117.534 188.678 116.954 188.557C116.35 188.411 115.818 188.145 115.311 187.708C114.803 187.272 114.441 186.617 114.248 185.768C114.054 185.09 114.054 184.435 114.272 183.78Z" fill="#242F65"/>
<path d="M105.815 194.546L105.598 191.006L100.765 191.321L100.644 189.236L105.453 188.921L105.211 185.236L99.7983 185.575L99.6533 183.393L107.772 182.859L108.642 196.51L100.523 197.043L100.378 194.885L105.815 194.546Z" fill="#242F65"/>
<path d="M90.2292 194.449L90.5917 190.909L85.7832 190.424L86.0006 188.339L90.8092 188.824L91.1716 185.162L85.7832 184.629L86.0006 182.447L94.0954 183.247L92.7423 196.873L84.6475 196.073L84.8649 193.915L90.2292 194.449Z" fill="#242F65"/>
<path d="M58.7685 187.805C58.0436 186.86 57.5845 185.793 57.4395 184.581C57.2946 183.368 57.4637 182.132 57.9711 180.895C58.4786 179.659 59.2035 178.64 60.17 177.865C61.1366 177.089 62.1998 176.628 63.3838 176.483C64.5678 176.337 65.7518 176.483 66.9358 176.967C68.1198 177.452 69.0864 178.156 69.8113 179.101C70.5604 180.047 70.9953 181.114 71.1403 182.35C71.2853 183.562 71.1161 184.799 70.6087 186.036C70.1013 187.272 69.3763 188.29 68.4098 189.042C67.4433 189.794 66.3801 190.254 65.196 190.424C64.012 190.57 62.828 190.424 61.644 189.939C60.46 189.454 59.4934 188.751 58.7685 187.805ZM64.7369 187.902C65.4377 187.805 66.0659 187.49 66.6459 187.005C67.2258 186.496 67.6607 185.842 68.0232 184.993C68.3615 184.144 68.5065 183.368 68.434 182.593C68.3856 181.841 68.144 181.162 67.7091 180.604C67.2983 180.047 66.6942 179.61 65.9693 179.295C65.2202 179.004 64.5195 178.883 63.8187 179.004C63.118 179.101 62.4897 179.416 61.9098 179.925C61.3299 180.435 60.8949 181.089 60.5325 181.938C60.1942 182.787 60.0492 183.562 60.1217 184.338C60.1942 185.09 60.4117 185.745 60.8466 186.326C61.2815 186.884 61.8615 187.321 62.5864 187.636C63.3113 187.951 64.0604 187.999 64.7369 187.902Z" fill="#242F65"/>
<path d="M45.9128 181.574L50.4314 174.955C51.0355 174.058 51.3013 173.282 51.2046 172.555C51.108 171.828 50.6972 171.246 49.9723 170.736C49.2474 170.252 48.5466 170.082 47.8459 170.252C47.1451 170.421 46.5169 170.955 45.9128 171.852L41.4184 178.471L39.1953 176.943L43.6897 170.3C44.3905 169.257 45.1879 168.506 46.0819 168.045C46.9518 167.584 47.87 167.415 48.7883 167.536C49.7065 167.657 50.6005 168.021 51.4704 168.603C52.8236 169.524 53.621 170.664 53.8868 172.046C54.1526 173.404 53.7418 174.883 52.6786 176.459L48.1842 183.102L45.9128 181.574Z" fill="#242F65"/>
<path d="M37.3353 156.722L35.813 162.735L36.6587 163.584L40.4282 159.826L42.3371 161.765L32.6475 171.391L28.9988 167.681C27.8873 166.542 27.3074 165.426 27.2832 164.287C27.2591 163.147 27.6698 162.129 28.5639 161.232C29.2888 160.504 30.1104 160.092 31.0044 160.019C31.8985 159.947 32.8167 160.189 33.7349 160.795L35.2089 154.516L37.3353 156.722ZM35.3055 164.917L33.7349 163.317C32.6475 162.202 31.6085 162.129 30.6178 163.123C30.1587 163.584 29.9171 164.093 29.9171 164.602C29.9171 165.135 30.207 165.693 30.7628 166.251L32.3334 167.851L35.3055 164.917Z" fill="#242F65"/>
<path d="M24.19 142.441L21.9186 138.464L23.7309 137.422L27.3554 143.774L15.5153 150.588L14.1621 148.211L24.19 142.441Z" fill="#242F65"/>
<path d="M16.0475 125.784L17.8839 130.948L20.7835 130.924L21.7501 133.64L7.3486 133.446L6.30957 130.512L17.3282 121.226L18.2947 123.941L16.0475 125.784ZM14.3319 127.19L9.59582 131.045L15.685 130.997L14.3319 127.19Z" fill="#242F65"/>
<path d="M1.4043 109.248L3.53069 108.909L4.11062 112.643L15.4433 110.873L15.8541 113.564L4.5214 115.334L5.10132 119.044L2.95077 119.383L1.4043 109.248Z" fill="#242F65"/>
<path d="M3.19205 99.1857L6.71993 99.2342L6.76826 94.385L8.84632 94.4092L8.798 99.2584L12.4709 99.3069L12.5434 93.8758L14.7181 93.9L14.6214 102.071L0.993164 101.877L1.08982 93.7061L3.24038 93.7303L3.19205 99.1857Z" fill="#242F65"/>
<path d="M15.1051 79.2313C15.6126 79.6919 15.9992 80.2739 16.2167 81.0012C16.4341 81.7286 16.4583 82.6015 16.2892 83.5471C16.12 84.4927 15.8059 85.3171 15.3226 86.0202C14.8635 86.7233 14.2836 87.2325 13.607 87.5719C12.9063 87.9114 12.1572 88.0326 11.3356 87.9599L11.8672 85.0988C12.423 85.1473 12.9063 85.0019 13.3412 84.6867C13.7761 84.3715 14.0419 83.9108 14.1628 83.2804C14.2594 82.7227 14.1869 82.262 13.9453 81.9226C13.7036 81.5589 13.3412 81.3407 12.8821 81.2679C12.4713 81.1952 12.1089 81.2437 11.7706 81.4377C11.4564 81.6316 11.1665 81.8983 10.949 82.2378C10.7074 82.5772 10.4416 83.0379 10.1033 83.6683C9.66833 84.4442 9.28172 85.0988 8.8951 85.5838C8.53265 86.0687 8.04937 86.4566 7.46945 86.7233C6.88952 87.0143 6.16462 87.0628 5.34305 86.9173C4.1832 86.6991 3.36164 86.1172 2.85421 85.1716C2.34677 84.226 2.20179 83.0622 2.46759 81.6801C2.73339 80.2496 3.28915 79.1828 4.11071 78.4554C4.95644 77.728 5.94714 77.4128 7.107 77.5098L6.5754 80.4193C6.06796 80.4193 5.65718 80.5406 5.27056 80.8073C4.90811 81.074 4.66647 81.5104 4.56982 82.0681C4.47317 82.553 4.54566 82.9894 4.73897 83.3531C4.93227 83.7168 5.29473 83.935 5.778 84.0078C6.16462 84.0805 6.52707 84.032 6.81703 83.838C7.107 83.6441 7.39696 83.4016 7.61443 83.0622C7.8319 82.7227 8.12186 82.262 8.43599 81.6801C8.8951 80.88 9.30588 80.2254 9.66833 79.7404C10.0308 79.2555 10.5141 78.8676 11.1181 78.5766C11.7222 78.2857 12.4471 78.2372 13.317 78.3826C13.9936 78.5039 14.5735 78.7948 15.1051 79.2313Z" fill="#242F65"/>
<path d="M8.94267 60.1978L10.9724 60.9494L9.66758 64.4893L20.4204 68.5142L19.478 71.0843L8.7252 67.0594L7.42036 70.5751L5.39062 69.8235L8.94267 60.1978Z" fill="#242F65"/>
<path d="M28.2013 30.8115L36.7552 41.989L34.653 44.6076L25.35 40.3888L31.4634 48.6082L29.3612 51.2268L16.627 45.2865L18.4634 42.9831L28.008 47.9778L21.4597 39.2249L23.3203 36.8731L33.2757 41.3828L26.3407 33.1149L28.2013 30.8115Z" fill="#242F65"/>
<path d="M42.8683 19.6339C44.0523 19.4884 45.2122 19.6581 46.3237 20.143C47.4352 20.6279 48.4017 21.4038 49.2233 22.4707C50.0207 23.5375 50.5281 24.6771 50.6731 25.9136C50.8423 27.1259 50.6973 28.2897 50.214 29.3808C49.7549 30.4719 49.0058 31.4175 47.991 32.1934C46.9761 32.9692 45.8646 33.4299 44.6806 33.5754C43.4965 33.7209 42.3367 33.5511 41.2252 33.0662C40.1136 32.5813 39.1471 31.7812 38.3255 30.7143C37.5281 29.6475 37.0207 28.5079 36.8757 27.2956C36.7066 26.0833 36.8757 24.9195 37.3348 23.8284C37.8181 22.7374 38.543 21.7918 39.5579 21.0159C40.5728 20.2643 41.6843 19.8036 42.8683 19.6339ZM39.727 24.7498C39.4612 25.4044 39.3887 26.1076 39.5337 26.8592C39.6787 27.6108 40.017 28.3382 40.5486 29.0656C41.0802 29.793 41.7084 30.3022 42.385 30.6416C43.0616 30.9811 43.7623 31.1023 44.4631 31.0295C45.1638 30.9568 45.8404 30.6659 46.4687 30.1809C47.0969 29.696 47.556 29.1383 47.8218 28.4837C48.0876 27.8291 48.1601 27.1259 48.0151 26.3743C47.8701 25.6227 47.5319 24.8953 47.0003 24.1679C46.4687 23.4405 45.8404 22.9313 45.1638 22.5919C44.4873 22.2524 43.7865 22.1312 43.0858 22.2039C42.385 22.2767 41.7084 22.5676 41.0802 23.0526C40.4519 23.5375 39.9928 24.0951 39.727 24.7498Z" fill="#242F65"/>
<path d="M64.6157 22.1802L59.4447 18.7372L58.3573 19.2464L60.6528 24.0471L58.1882 25.2352L52.3164 12.9182L57.0041 10.6633C58.4298 9.98438 59.6863 9.81465 60.7737 10.1541C61.861 10.4935 62.6826 11.2452 63.2142 12.3847C63.6491 13.3303 63.7699 14.2275 63.5525 15.1003C63.335 15.9732 62.7792 16.7491 61.9093 17.4279L67.322 20.8951L64.6157 22.1802ZM57.5599 17.5734L59.5896 16.6036C60.9911 15.9247 61.4019 14.9791 60.7978 13.7183C60.5079 13.1121 60.1212 12.7484 59.6138 12.5787C59.1064 12.409 58.5023 12.506 57.7774 12.8454L55.7476 13.8153L57.5599 17.5734Z" fill="#242F65"/>
<path d="M75.6586 11.0027L83.0043 16.2641L79.8147 17.1127L73.3389 12.3362L74.9337 18.3978L72.2999 19.1009L68.8203 5.86251L71.4541 5.15937L73.0248 11.0997L76.3593 3.85008L79.5248 3.00146L75.6586 11.0027Z" fill="#242F65"/>
<path d="M97.6709 0.115418L99.87 5.09419L105.22 6.09356L101.18 9.74477L101.875 15.1381L97.1774 12.4266L92.262 14.7556L93.4027 9.43751L89.6663 5.47905L95.0637 4.90294L97.6709 0.115418Z" fill="#F3764F"/>
</svg>
