<svg width="37" height="29" viewBox="0 0 37 29" fill="none" xmlns="http://www.w3.org/2000/svg">
<path d="M31.8102 5.99985C35.2174 9.40701 39.0058 11.1005 35.5987 14.5076L24.6312 25.4751C21.224 28.8823 15.6999 28.8823 12.2928 25.4751C8.88559 22.068 8.88559 16.5438 12.2927 13.1367L23.2602 2.16919C26.6674 -1.23797 28.4031 2.59269 31.8102 5.99985Z" fill="#7390F9"/>
<path d="M24.6715 25.4749C21.2644 28.8821 15.7403 28.8821 12.3331 25.4749L1.36561 14.5074C-2.04155 11.1003 1.59268 8.40701 4.99984 4.99985C8.407 1.59269 10.2969 -1.23817 13.704 2.16899L24.6715 13.1365C28.0787 16.5436 28.0787 22.0677 24.6715 25.4749Z" fill="#FF774C"/>
<path d="M25.1528 24.9601L24.6312 25.4817C22.9438 27.1691 20.7373 28.0208 18.5259 28.0369C16.2852 28.0429 14.0427 27.1911 12.3331 25.4815L11.8092 24.9576C8.5 21.5 8 21.1418 1.36561 14.5074L18.4822 6.94719L35.5987 14.5076C31 19.5 28.5 21.5 25.1528 24.9601Z" fill="#242F65"/>
</svg>
