<svg width="46" height="48" viewBox="0 0 46 48" fill="none" xmlns="http://www.w3.org/2000/svg">
<path d="M36.481 21.4533C32.7247 21.4533 29.9233 20.5302 28.077 18.6838C26.167 16.8375 25.212 14.3545 25.212 11.2348C25.212 8.2425 26.167 5.7595 28.077 3.78583C29.987 1.81217 32.4063 0.825332 35.335 0.825333C38.2637 0.825333 40.7467 2.06683 42.784 4.54984C44.8213 7.0965 45.84 10.7892 45.84 15.6278C45.84 21.1032 45.076 25.9737 43.548 30.2393C41.9563 34.5687 39.728 38.134 36.863 40.9353C33.9343 43.8003 30.4327 45.8058 26.358 46.9518C26.0397 47.0792 25.785 47.111 25.594 47.0473C25.403 47.0473 25.2757 46.9518 25.212 46.7608C25.1483 46.5698 25.1802 46.3788 25.3075 46.1878C25.4348 45.9968 25.6258 45.8695 25.8805 45.8058C29.7005 44.5962 32.8202 42.718 35.2395 40.1713C37.5952 37.6883 39.346 34.9507 40.492 31.9583C41.5743 29.0297 42.1155 26.292 42.1155 23.7453C42.1155 23.045 41.9563 22.472 41.638 22.0263C41.256 21.6443 40.6512 21.4533 39.8235 21.4533H36.481ZM11.269 21.5488C7.57634 21.5488 4.80684 20.6257 2.9605 18.7793C1.05051 16.933 0.0955073 14.45 0.0955076 11.3303C0.0955078 8.33799 1.05051 5.85499 2.96051 3.88132C4.87051 1.90766 7.25801 0.920835 10.123 0.920835C13.0517 0.920835 15.5347 2.16233 17.572 4.64533C19.6093 7.192 20.628 10.8528 20.628 15.6278C20.628 21.1668 19.864 26.0692 18.336 30.3348C16.808 34.6642 14.6115 38.2295 11.7465 41.0308C8.81784 43.8958 5.31617 45.9013 1.2415 47.0473C0.859502 47.1747 0.573003 47.2065 0.382004 47.1428C0.191004 47.1428 0.0636696 47.0473 0 46.8563C1.66979e-08 46.6653 0.0636678 46.4743 0.191003 46.2833C0.254669 46.0923 0.445669 45.9332 0.764002 45.8058C4.52034 44.6598 7.60817 42.8135 10.0275 40.2668C12.4468 37.7202 14.2295 34.9507 15.3755 31.9583C16.4578 29.0297 16.999 26.3238 16.999 23.8408C16.999 23.1405 16.808 22.5675 16.426 22.1218C16.044 21.7398 15.4392 21.5488 14.6115 21.5488H11.269Z" fill="#FF774D"/>
</svg>
