<?xml version="1.0" standalone="no"?>
<!DOCTYPE svg PUBLIC "-//W3C//DTD SVG 20010904//EN"
 "http://www.w3.org/TR/2001/REC-SVG-20010904/DTD/svg10.dtd">
<svg version="1.0" xmlns="http://www.w3.org/2000/svg"
 width="700.000000pt" height="700.000000pt" viewBox="0 0 700.000000 700.000000"
 preserveAspectRatio="xMidYMid meet">
<metadata>
Created by potrace 1.14, written by Peter Selinger 2001-2017
</metadata>
<g transform="translate(0.000000,700.000000) scale(0.100000,-0.100000)"
fill="#000000" stroke="none">
<path d="M540 5889 c0 -106 173 -463 366 -754 204 -308 400 -512 605 -627 l80
-46 68 28 c225 92 536 110 784 45 51 -13 93 -22 95 -21 1 2 -41 23 -95 46
-388 169 -538 248 -827 438 -367 239 -682 509 -948 810 -54 61 -106 112 -114
112 -9 0 -14 -11 -14 -31z"/>
<path d="M6489 5422 c-335 -252 -578 -411 -794 -517 -191 -93 -328 -147 -640
-250 l-249 -83 64 -7 c195 -22 395 -105 543 -224 l88 -71 46 20 c196 87 487
371 774 755 115 155 341 496 327 495 -2 -1 -73 -53 -159 -118z"/>
<path d="M2340 3810 l0 -220 -221 0 -222 0 6 -60 c7 -86 54 -179 124 -248 138
-136 333 -168 504 -82 107 55 178 137 220 256 31 91 24 226 -17 314 -38 80
-104 155 -175 197 -53 32 -151 63 -196 63 l-23 0 0 -220z"/>
<path d="M4508 3724 l-3 -189 -191 -3 -191 -2 8 -56 c10 -74 50 -154 106 -209
184 -185 494 -132 610 103 25 51 28 67 28 162 0 93 -3 112 -27 162 -52 112
-172 201 -287 215 l-51 6 -2 -189z"/>
<path d="M3193 2438 l-242 -243 241 -458 c133 -252 245 -454 249 -450 4 4 114
210 244 457 l237 449 -244 244 -243 243 -242 -242z"/>
</g>
</svg>
