<svg width="390" height="299" viewBox="0 0 390 299" fill="none" xmlns="http://www.w3.org/2000/svg">
<rect x="19.5942" y="42.4517" width="259.842" height="184.084" stroke="#C6C6C6" stroke-width="2" stroke-linejoin="round" stroke-dasharray="3 3"/>
<rect x="61.8701" y="39.6021" width="270.68" height="213.823" fill="#F1F1F1"/>
<rect x="68.4995" y="70.8091" width="257.422" height="177.993" fill="white"/>
<rect x="89.4907" y="93.9243" width="213.23" height="129.449" rx="8" fill="#F1F1F1"/>
<rect x="308.244" y="53.4712" width="16.5722" height="4.62319" rx="2.3116" fill="#C4C4C4"/>
<rect x="186.714" y="177.141" width="47.5071" height="4.62319" rx="2.3116" fill="white"/>
<rect x="101.644" y="115.885" width="47.5071" height="4.62319" rx="2.3116" fill="white"/>
<rect x="244.165" y="177.141" width="47.5071" height="4.62319" rx="2.3116" fill="white"/>
<rect x="186.714" y="185.233" width="47.5071" height="4.62319" rx="2.3116" fill="white"/>
<rect x="101.644" y="123.975" width="47.5071" height="4.62319" rx="2.3116" fill="white"/>
<rect x="244.165" y="185.233" width="47.5071" height="4.62319" rx="2.3116" fill="white"/>
<rect x="186.714" y="193.323" width="26.5156" height="4.62319" rx="2.3116" fill="white"/>
<rect x="101.644" y="132.067" width="26.5156" height="4.62319" rx="2.3116" fill="white"/>
<rect x="244.165" y="193.323" width="26.5156" height="4.62319" rx="2.3116" fill="white"/>
<ellipse cx="71.2616" cy="55.2044" rx="2.76204" ry="2.8895" fill="#C4C4C4"/>
<ellipse cx="78.9949" cy="55.2044" rx="2.76204" ry="2.8895" fill="#C4C4C4"/>
<ellipse cx="86.7283" cy="55.2044" rx="2.76204" ry="2.8895" fill="#C4C4C4"/>
<rect y="156.336" width="169.037" height="142.163" rx="15" fill="white"/>
<rect x="17.6772" y="188.7" width="131.473" height="20.8044" rx="4" fill="#EEEEEE"/>
<rect x="17.6772" y="232.62" width="131.473" height="20.8044" rx="4" fill="#FFD8D8"/>
<rect x="17.6152" y="264.639" width="45.9959" height="21.4997" rx="4" fill="#E1E1E1"/>
<path d="M18.5802 179.362C18.4916 179.362 18.4192 179.336 18.3632 179.285C18.3119 179.233 18.2862 179.166 18.2862 179.082V174.707C18.2862 174.623 18.3119 174.555 18.3632 174.504C18.4192 174.452 18.4916 174.427 18.5802 174.427H21.1982C21.2822 174.427 21.3476 174.448 21.3942 174.49C21.4409 174.532 21.4642 174.59 21.4642 174.665C21.4642 174.739 21.4409 174.798 21.3942 174.84C21.3476 174.882 21.2822 174.903 21.1982 174.903H18.8532V176.618H21.0582C21.1422 176.618 21.2076 176.639 21.2542 176.681C21.3009 176.723 21.3242 176.781 21.3242 176.856C21.3242 176.93 21.3009 176.989 21.2542 177.031C21.2076 177.073 21.1422 177.094 21.0582 177.094H18.8532V178.886H21.1982C21.2822 178.886 21.3476 178.907 21.3942 178.949C21.4409 178.986 21.4642 179.044 21.4642 179.124C21.4642 179.198 21.4409 179.257 21.3942 179.299C21.3476 179.341 21.2822 179.362 21.1982 179.362H18.5802ZM26.0705 175.869C26.8265 175.869 27.2045 176.319 27.2045 177.22V179.117C27.2045 179.205 27.1788 179.275 27.1275 179.327C27.0761 179.373 27.0085 179.397 26.9245 179.397C26.8405 179.397 26.7705 179.373 26.7145 179.327C26.6631 179.275 26.6375 179.205 26.6375 179.117V177.234C26.6375 176.921 26.5815 176.695 26.4695 176.555C26.3575 176.415 26.1825 176.345 25.9445 176.345C25.6598 176.345 25.4358 176.44 25.2725 176.632C25.1091 176.823 25.0275 177.082 25.0275 177.409V179.117C25.0275 179.205 24.9995 179.275 24.9435 179.327C24.8921 179.373 24.8245 179.397 24.7405 179.397C24.6565 179.397 24.5888 179.373 24.5375 179.327C24.4861 179.275 24.4605 179.205 24.4605 179.117V177.234C24.4605 176.921 24.4045 176.695 24.2925 176.555C24.1805 176.415 24.0031 176.345 23.7605 176.345C23.4805 176.345 23.2565 176.44 23.0885 176.632C22.9251 176.823 22.8435 177.082 22.8435 177.409V179.117C22.8435 179.205 22.8178 179.275 22.7665 179.327C22.7151 179.373 22.6475 179.397 22.5635 179.397C22.4795 179.397 22.4095 179.373 22.3535 179.327C22.3021 179.275 22.2765 179.205 22.2765 179.117V176.163C22.2765 176.079 22.3021 176.011 22.3535 175.96C22.4095 175.908 22.4795 175.883 22.5635 175.883C22.6428 175.883 22.7081 175.908 22.7595 175.96C22.8108 176.006 22.8365 176.072 22.8365 176.156V176.492C22.9391 176.291 23.0815 176.137 23.2635 176.03C23.4455 175.922 23.6555 175.869 23.8935 175.869C24.4255 175.869 24.7731 176.093 24.9365 176.541C25.0345 176.335 25.1838 176.172 25.3845 176.051C25.5851 175.929 25.8138 175.869 26.0705 175.869ZM29.6304 175.869C30.4844 175.869 30.9114 176.317 30.9114 177.213V179.117C30.9114 179.201 30.8857 179.268 30.8344 179.32C30.7877 179.371 30.7224 179.397 30.6384 179.397C30.5544 179.397 30.4867 179.371 30.4354 179.32C30.3841 179.268 30.3584 179.201 30.3584 179.117V178.781C30.2697 178.981 30.1344 179.138 29.9524 179.25C29.7704 179.357 29.5604 179.411 29.3224 179.411C29.1031 179.411 28.9001 179.366 28.7134 179.278C28.5314 179.189 28.3867 179.065 28.2794 178.907C28.1721 178.748 28.1184 178.573 28.1184 178.382C28.1184 178.125 28.1837 177.927 28.3144 177.787C28.4451 177.642 28.6597 177.539 28.9584 177.479C29.2571 177.413 29.6724 177.381 30.2044 177.381H30.3584V177.15C30.3584 176.87 30.3001 176.664 30.1834 176.534C30.0714 176.403 29.8871 176.338 29.6304 176.338C29.3131 176.338 28.9911 176.424 28.6644 176.597C28.5384 176.676 28.4497 176.716 28.3984 176.716C28.3424 176.716 28.2957 176.695 28.2584 176.653C28.2211 176.611 28.2024 176.557 28.2024 176.492C28.2024 176.426 28.2211 176.37 28.2584 176.324C28.3004 176.272 28.3657 176.221 28.4544 176.17C28.6177 176.076 28.8021 176.004 29.0074 175.953C29.2174 175.897 29.4251 175.869 29.6304 175.869ZM29.3994 178.963C29.6794 178.963 29.9081 178.869 30.0854 178.683C30.2674 178.491 30.3584 178.246 30.3584 177.948V177.745H30.2324C29.8217 177.745 29.5091 177.763 29.2944 177.801C29.0797 177.833 28.9257 177.892 28.8324 177.976C28.7437 178.055 28.6994 178.174 28.6994 178.333C28.6994 178.515 28.7647 178.666 28.8954 178.788C29.0307 178.904 29.1987 178.963 29.3994 178.963ZM32.2363 179.397C32.1523 179.397 32.0823 179.373 32.0263 179.327C31.975 179.275 31.9493 179.205 31.9493 179.117V176.163C31.9493 176.074 31.975 176.006 32.0263 175.96C32.0823 175.908 32.1523 175.883 32.2363 175.883C32.3203 175.883 32.388 175.908 32.4393 175.96C32.4906 176.006 32.5163 176.074 32.5163 176.163V179.117C32.5163 179.21 32.4906 179.28 32.4393 179.327C32.388 179.373 32.3203 179.397 32.2363 179.397ZM32.2363 175.148C32.1243 175.148 32.0333 175.115 31.9633 175.05C31.8933 174.984 31.8583 174.898 31.8583 174.791C31.8583 174.688 31.8933 174.604 31.9633 174.539C32.0333 174.473 32.1243 174.441 32.2363 174.441C32.3483 174.441 32.4393 174.473 32.5093 174.539C32.5793 174.604 32.6143 174.688 32.6143 174.791C32.6143 174.898 32.5793 174.984 32.5093 175.05C32.4393 175.115 32.3483 175.148 32.2363 175.148ZM33.8633 179.397C33.7793 179.397 33.7093 179.373 33.6533 179.327C33.6019 179.275 33.5763 179.205 33.5763 179.117V174.672C33.5763 174.583 33.6019 174.515 33.6533 174.469C33.7093 174.417 33.7793 174.392 33.8633 174.392C33.9426 174.392 34.0079 174.417 34.0593 174.469C34.1153 174.515 34.1433 174.583 34.1433 174.672V179.117C34.1433 179.205 34.1153 179.275 34.0593 179.327C34.0079 179.373 33.9426 179.397 33.8633 179.397Z" fill="black"/>
<path d="M20.3779 223.317C20.2893 223.317 20.2193 223.291 20.1679 223.24C20.1166 223.184 20.0909 223.111 20.0909 223.023V218.627C20.0909 218.543 20.1166 218.475 20.1679 218.424C20.2239 218.372 20.2963 218.347 20.3849 218.347H22.0439C22.5619 218.347 22.9633 218.473 23.2479 218.725C23.5373 218.977 23.6819 219.334 23.6819 219.796C23.6819 220.258 23.5373 220.617 23.2479 220.874C22.9586 221.13 22.5573 221.259 22.0439 221.259H20.6649V223.023C20.6649 223.111 20.6393 223.184 20.5879 223.24C20.5366 223.291 20.4666 223.317 20.3779 223.317ZM21.9879 220.783C22.7393 220.783 23.1149 220.454 23.1149 219.796C23.1149 219.147 22.7393 218.823 21.9879 218.823H20.6649V220.783H21.9879ZM25.8365 219.789C26.6905 219.789 27.1175 220.237 27.1175 221.133V223.037C27.1175 223.121 27.0918 223.188 27.0405 223.24C26.9938 223.291 26.9285 223.317 26.8445 223.317C26.7605 223.317 26.6928 223.291 26.6415 223.24C26.5901 223.188 26.5645 223.121 26.5645 223.037V222.701C26.4758 222.901 26.3405 223.058 26.1585 223.17C25.9765 223.277 25.7665 223.331 25.5285 223.331C25.3091 223.331 25.1061 223.286 24.9195 223.198C24.7375 223.109 24.5928 222.985 24.4855 222.827C24.3781 222.668 24.3245 222.493 24.3245 222.302C24.3245 222.045 24.3898 221.847 24.5205 221.707C24.6511 221.562 24.8658 221.459 25.1645 221.399C25.4631 221.333 25.8785 221.301 26.4105 221.301H26.5645V221.07C26.5645 220.79 26.5061 220.584 26.3895 220.454C26.2775 220.323 26.0931 220.258 25.8365 220.258C25.5191 220.258 25.1971 220.344 24.8705 220.517C24.7445 220.596 24.6558 220.636 24.6045 220.636C24.5485 220.636 24.5018 220.615 24.4645 220.573C24.4271 220.531 24.4085 220.477 24.4085 220.412C24.4085 220.346 24.4271 220.29 24.4645 220.244C24.5065 220.192 24.5718 220.141 24.6605 220.09C24.8238 219.996 25.0081 219.924 25.2135 219.873C25.4235 219.817 25.6311 219.789 25.8365 219.789ZM25.6055 222.883C25.8855 222.883 26.1141 222.789 26.2915 222.603C26.4735 222.411 26.5645 222.166 26.5645 221.868V221.665H26.4385C26.0278 221.665 25.7151 221.683 25.5005 221.721C25.2858 221.753 25.1318 221.812 25.0385 221.896C24.9498 221.975 24.9055 222.094 24.9055 222.253C24.9055 222.435 24.9708 222.586 25.1015 222.708C25.2368 222.824 25.4048 222.883 25.6055 222.883ZM29.3034 223.331C29.0887 223.331 28.8834 223.305 28.6874 223.254C28.496 223.202 28.3257 223.13 28.1764 223.037C28.0924 222.981 28.0317 222.929 27.9944 222.883C27.9617 222.831 27.9454 222.771 27.9454 222.701C27.9454 222.64 27.9617 222.591 27.9944 222.554C28.0317 222.512 28.0784 222.491 28.1344 222.491C28.1904 222.491 28.272 222.526 28.3794 222.596C28.5194 222.68 28.657 222.747 28.7924 222.799C28.9324 222.845 29.105 222.869 29.3104 222.869C29.5624 222.869 29.7584 222.824 29.8984 222.736C30.0384 222.647 30.1084 222.519 30.1084 222.351C30.1084 222.248 30.0827 222.166 30.0314 222.106C29.98 222.04 29.8914 221.984 29.7654 221.938C29.6394 221.886 29.455 221.835 29.2124 221.784C28.8017 221.695 28.5077 221.576 28.3304 221.427C28.153 221.277 28.0644 221.074 28.0644 220.818C28.0644 220.617 28.1204 220.44 28.2324 220.286C28.3444 220.132 28.4984 220.01 28.6944 219.922C28.895 219.833 29.1214 219.789 29.3734 219.789C29.5554 219.789 29.7304 219.814 29.8984 219.866C30.071 219.912 30.2227 219.98 30.3534 220.069C30.512 220.181 30.5914 220.297 30.5914 220.419C30.5914 220.479 30.5727 220.531 30.5354 220.573C30.498 220.615 30.4537 220.636 30.4024 220.636C30.3464 220.636 30.2624 220.596 30.1504 220.517C30.0197 220.433 29.896 220.367 29.7794 220.321C29.6627 220.274 29.518 220.251 29.3454 220.251C29.126 220.251 28.9487 220.3 28.8134 220.398C28.6827 220.496 28.6174 220.626 28.6174 220.79C28.6174 220.892 28.6407 220.976 28.6874 221.042C28.7387 221.102 28.8204 221.158 28.9324 221.21C29.049 221.256 29.2147 221.303 29.4294 221.35C29.7467 221.42 29.9917 221.497 30.1644 221.581C30.3417 221.665 30.4677 221.767 30.5424 221.889C30.617 222.01 30.6544 222.164 30.6544 222.351C30.6544 222.645 30.5307 222.883 30.2834 223.065C30.036 223.242 29.7094 223.331 29.3034 223.331ZM32.6667 223.331C32.452 223.331 32.2467 223.305 32.0507 223.254C31.8593 223.202 31.689 223.13 31.5397 223.037C31.4557 222.981 31.395 222.929 31.3577 222.883C31.325 222.831 31.3087 222.771 31.3087 222.701C31.3087 222.64 31.325 222.591 31.3577 222.554C31.395 222.512 31.4417 222.491 31.4977 222.491C31.5537 222.491 31.6353 222.526 31.7427 222.596C31.8827 222.68 32.0203 222.747 32.1557 222.799C32.2957 222.845 32.4683 222.869 32.6737 222.869C32.9257 222.869 33.1217 222.824 33.2617 222.736C33.4017 222.647 33.4717 222.519 33.4717 222.351C33.4717 222.248 33.446 222.166 33.3947 222.106C33.3433 222.04 33.2547 221.984 33.1287 221.938C33.0027 221.886 32.8183 221.835 32.5757 221.784C32.165 221.695 31.871 221.576 31.6937 221.427C31.5163 221.277 31.4277 221.074 31.4277 220.818C31.4277 220.617 31.4837 220.44 31.5957 220.286C31.7077 220.132 31.8617 220.01 32.0577 219.922C32.2583 219.833 32.4847 219.789 32.7367 219.789C32.9187 219.789 33.0937 219.814 33.2617 219.866C33.4343 219.912 33.586 219.98 33.7167 220.069C33.8753 220.181 33.9547 220.297 33.9547 220.419C33.9547 220.479 33.936 220.531 33.8987 220.573C33.8613 220.615 33.817 220.636 33.7657 220.636C33.7097 220.636 33.6257 220.596 33.5137 220.517C33.383 220.433 33.2593 220.367 33.1427 220.321C33.026 220.274 32.8813 220.251 32.7087 220.251C32.4893 220.251 32.312 220.3 32.1767 220.398C32.046 220.496 31.9807 220.626 31.9807 220.79C31.9807 220.892 32.004 220.976 32.0507 221.042C32.102 221.102 32.1837 221.158 32.2957 221.21C32.4123 221.256 32.578 221.303 32.7927 221.35C33.11 221.42 33.355 221.497 33.5277 221.581C33.705 221.665 33.831 221.767 33.9057 221.889C33.9803 222.01 34.0177 222.164 34.0177 222.351C34.0177 222.645 33.894 222.883 33.6467 223.065C33.3993 223.242 33.0727 223.331 32.6667 223.331ZM39.4824 219.985C39.5291 219.873 39.6061 219.817 39.7134 219.817C39.7834 219.817 39.8464 219.84 39.9024 219.887C39.9584 219.933 39.9864 219.992 39.9864 220.062C39.9864 220.094 39.9794 220.129 39.9654 220.167L38.8034 223.107C38.7754 223.167 38.7334 223.216 38.6774 223.254C38.6261 223.286 38.5677 223.303 38.5024 223.303C38.4417 223.303 38.3834 223.286 38.3274 223.254C38.2761 223.216 38.2364 223.167 38.2084 223.107L37.2424 220.65L36.2834 223.107C36.2601 223.167 36.2204 223.216 36.1644 223.254C36.1084 223.286 36.0477 223.303 35.9824 223.303C35.9217 223.303 35.8634 223.286 35.8074 223.254C35.7514 223.216 35.7094 223.167 35.6814 223.107L34.5194 220.174C34.5054 220.136 34.4984 220.104 34.4984 220.076C34.4984 220.001 34.5287 219.938 34.5894 219.887C34.6547 219.835 34.7247 219.81 34.7994 219.81C34.9114 219.81 34.9907 219.866 35.0374 219.978L35.9964 222.561L36.9834 219.999C37.0114 219.938 37.0487 219.891 37.0954 219.859C37.1467 219.826 37.2004 219.81 37.2564 219.81C37.3171 219.81 37.3707 219.826 37.4174 219.859C37.4687 219.891 37.5061 219.938 37.5294 219.999L38.5164 222.554L39.4824 219.985ZM42.086 223.331C41.764 223.331 41.4793 223.258 41.232 223.114C40.9893 222.969 40.8003 222.764 40.665 222.498C40.5343 222.227 40.469 221.914 40.469 221.56C40.469 221.205 40.5343 220.895 40.665 220.629C40.8003 220.358 40.9893 220.15 41.232 220.006C41.4793 219.861 41.764 219.789 42.086 219.789C42.408 219.789 42.6926 219.861 42.94 220.006C43.1873 220.15 43.3763 220.358 43.507 220.629C43.6423 220.895 43.71 221.205 43.71 221.56C43.71 221.914 43.6423 222.227 43.507 222.498C43.3763 222.764 43.1873 222.969 42.94 223.114C42.6926 223.258 42.408 223.331 42.086 223.331ZM42.086 222.862C42.422 222.862 42.6786 222.752 42.856 222.533C43.038 222.309 43.129 221.984 43.129 221.56C43.129 221.144 43.038 220.825 42.856 220.601C42.674 220.372 42.4173 220.258 42.086 220.258C41.7546 220.258 41.498 220.372 41.316 220.601C41.134 220.825 41.043 221.144 41.043 221.56C41.043 221.98 41.1316 222.302 41.309 222.526C41.491 222.75 41.75 222.862 42.086 222.862ZM46.2418 219.803C46.4378 219.789 46.5358 219.868 46.5358 220.041C46.5358 220.115 46.5148 220.176 46.4728 220.223C46.4308 220.265 46.3585 220.29 46.2558 220.3L46.0458 220.321C45.7331 220.349 45.4998 220.461 45.3458 220.657C45.1965 220.848 45.1218 221.074 45.1218 221.336V223.037C45.1218 223.13 45.0961 223.2 45.0448 223.247C44.9935 223.293 44.9258 223.317 44.8418 223.317C44.7578 223.317 44.6878 223.293 44.6318 223.247C44.5805 223.195 44.5548 223.125 44.5548 223.037V220.083C44.5548 219.994 44.5828 219.926 44.6388 219.88C44.6948 219.828 44.7625 219.803 44.8418 219.803C44.9165 219.803 44.9795 219.828 45.0308 219.88C45.0821 219.926 45.1078 219.992 45.1078 220.076V220.468C45.2058 220.262 45.3435 220.106 45.5208 219.999C45.7028 219.891 45.9105 219.828 46.1438 219.81L46.2418 219.803ZM49.6912 218.312C49.7799 218.312 49.8499 218.337 49.9012 218.389C49.9525 218.44 49.9782 218.505 49.9782 218.585V223.037C49.9782 223.121 49.9525 223.188 49.9012 223.24C49.8499 223.291 49.7799 223.317 49.6912 223.317C49.6025 223.317 49.5325 223.291 49.4812 223.24C49.4345 223.188 49.4112 223.121 49.4112 223.037V222.659C49.3085 222.873 49.1569 223.039 48.9562 223.156C48.7602 223.272 48.5292 223.331 48.2632 223.331C47.9645 223.331 47.7009 223.256 47.4722 223.107C47.2435 222.957 47.0662 222.75 46.9402 222.484C46.8142 222.213 46.7512 221.9 46.7512 221.546C46.7512 221.196 46.8142 220.888 46.9402 220.622C47.0662 220.356 47.2435 220.15 47.4722 220.006C47.7009 219.861 47.9645 219.789 48.2632 219.789C48.5292 219.789 48.7602 219.847 48.9562 219.964C49.1569 220.08 49.3085 220.246 49.4112 220.461V218.585C49.4112 218.501 49.4345 218.435 49.4812 218.389C49.5325 218.337 49.6025 218.312 49.6912 218.312ZM48.3752 222.862C48.7065 222.862 48.9609 222.75 49.1382 222.526C49.3202 222.297 49.4112 221.975 49.4112 221.56C49.4112 221.144 49.3202 220.825 49.1382 220.601C48.9609 220.377 48.7065 220.265 48.3752 220.265C48.0439 220.265 47.7849 220.377 47.5982 220.601C47.4162 220.825 47.3252 221.14 47.3252 221.546C47.3252 221.961 47.4162 222.285 47.5982 222.519C47.7849 222.747 48.0439 222.862 48.3752 222.862Z" fill="black"/>
<path d="M33.181 275.758C33.065 275.758 32.975 275.726 32.911 275.662C32.847 275.598 32.815 275.51 32.815 275.398V271.882C32.815 271.766 32.849 271.674 32.917 271.606C32.989 271.534 33.083 271.498 33.199 271.498C33.319 271.498 33.413 271.534 33.481 271.606C33.553 271.674 33.589 271.766 33.589 271.882V275.122H35.275C35.515 275.122 35.635 275.228 35.635 275.44C35.635 275.652 35.515 275.758 35.275 275.758H33.181ZM37.3976 275.806C37.0976 275.806 36.8336 275.744 36.6056 275.62C36.3816 275.496 36.2076 275.318 36.0836 275.086C35.9596 274.854 35.8976 274.584 35.8976 274.276C35.8976 273.968 35.9596 273.7 36.0836 273.472C36.2076 273.24 36.3816 273.062 36.6056 272.938C36.8336 272.814 37.0976 272.752 37.3976 272.752C37.6976 272.752 37.9596 272.814 38.1836 272.938C38.4116 273.062 38.5856 273.24 38.7056 273.472C38.8296 273.7 38.8916 273.968 38.8916 274.276C38.8916 274.584 38.8296 274.854 38.7056 275.086C38.5856 275.318 38.4116 275.496 38.1836 275.62C37.9596 275.744 37.6976 275.806 37.3976 275.806ZM37.3916 275.224C37.6356 275.224 37.8216 275.144 37.9496 274.984C38.0776 274.824 38.1416 274.588 38.1416 274.276C38.1416 273.968 38.0776 273.734 37.9496 273.574C37.8216 273.41 37.6376 273.328 37.3976 273.328C37.1576 273.328 36.9716 273.41 36.8396 273.574C36.7116 273.734 36.6476 273.968 36.6476 274.276C36.6476 274.588 36.7116 274.824 36.8396 274.984C36.9676 275.144 37.1516 275.224 37.3916 275.224ZM41.9948 272.764C42.1068 272.764 42.1968 272.796 42.2648 272.86C42.3328 272.924 42.3668 273.01 42.3668 273.118V275.488C42.3668 275.948 42.2388 276.296 41.9828 276.532C41.7268 276.768 41.3488 276.886 40.8488 276.886C40.4128 276.886 40.0488 276.804 39.7568 276.64C39.6088 276.552 39.5348 276.446 39.5348 276.322C39.5348 276.234 39.5548 276.164 39.5948 276.112C39.6388 276.06 39.6948 276.034 39.7628 276.034C39.7988 276.034 39.8428 276.042 39.8948 276.058C39.9468 276.078 40.0008 276.1 40.0568 276.124C40.2008 276.184 40.3288 276.23 40.4408 276.262C40.5568 276.294 40.6888 276.31 40.8368 276.31C41.3608 276.31 41.6228 276.054 41.6228 275.542V275.158C41.5348 275.322 41.4068 275.45 41.2388 275.542C41.0708 275.63 40.8788 275.674 40.6628 275.674C40.4068 275.674 40.1788 275.614 39.9788 275.494C39.7828 275.37 39.6288 275.198 39.5168 274.978C39.4048 274.758 39.3488 274.504 39.3488 274.216C39.3488 273.928 39.4028 273.674 39.5108 273.454C39.6228 273.23 39.7788 273.058 39.9788 272.938C40.1788 272.814 40.4068 272.752 40.6628 272.752C40.8788 272.752 41.0708 272.798 41.2388 272.89C41.4068 272.978 41.5348 273.104 41.6228 273.268V273.112C41.6228 273.008 41.6568 272.924 41.7248 272.86C41.7928 272.796 41.8828 272.764 41.9948 272.764ZM40.8608 275.092C41.1008 275.092 41.2868 275.014 41.4188 274.858C41.5548 274.702 41.6228 274.488 41.6228 274.216C41.6228 273.94 41.5548 273.724 41.4188 273.568C41.2868 273.412 41.1008 273.334 40.8608 273.334C40.6248 273.334 40.4388 273.412 40.3028 273.568C40.1668 273.724 40.0988 273.94 40.0988 274.216C40.0988 274.488 40.1668 274.702 40.3028 274.858C40.4388 275.014 40.6248 275.092 40.8608 275.092ZM43.5936 275.794C43.4776 275.794 43.3836 275.758 43.3116 275.686C43.2436 275.614 43.2096 275.52 43.2096 275.404V271.882C43.2096 271.766 43.2436 271.674 43.3116 271.606C43.3836 271.534 43.4776 271.498 43.5936 271.498C43.7136 271.498 43.8076 271.534 43.8756 271.606C43.9476 271.674 43.9836 271.766 43.9836 271.882V275.404C43.9836 275.52 43.9476 275.614 43.8756 275.686C43.8076 275.758 43.7136 275.794 43.5936 275.794ZM46.5351 272.752C46.8871 272.752 47.1491 272.852 47.3211 273.052C47.4931 273.252 47.5791 273.554 47.5791 273.958V275.434C47.5791 275.546 47.5451 275.634 47.4771 275.698C47.4131 275.762 47.3231 275.794 47.2071 275.794C47.0911 275.794 46.9991 275.762 46.9311 275.698C46.8631 275.634 46.8291 275.546 46.8291 275.434V274C46.8291 273.772 46.7851 273.606 46.6971 273.502C46.6131 273.398 46.4791 273.346 46.2951 273.346C46.0791 273.346 45.9051 273.414 45.7731 273.55C45.6451 273.686 45.5811 273.868 45.5811 274.096V275.434C45.5811 275.546 45.5471 275.634 45.4791 275.698C45.4111 275.762 45.3191 275.794 45.2031 275.794C45.0871 275.794 44.9951 275.762 44.9271 275.698C44.8631 275.634 44.8311 275.546 44.8311 275.434V273.112C44.8311 273.008 44.8651 272.924 44.9331 272.86C45.0011 272.796 45.0931 272.764 45.2091 272.764C45.3131 272.764 45.3971 272.796 45.4611 272.86C45.5291 272.92 45.5631 273 45.5631 273.1V273.262C45.6631 273.098 45.7971 272.972 45.9651 272.884C46.1331 272.796 46.3231 272.752 46.5351 272.752Z" fill="#4D4D4D"/>
<path d="M30.6026 198.019C30.6539 197.907 30.7356 197.851 30.8476 197.851C30.9176 197.851 30.9806 197.874 31.0366 197.921C31.0926 197.967 31.1206 198.026 31.1206 198.096C31.1206 198.138 31.1113 198.175 31.0926 198.208L29.1256 202.45C29.1023 202.501 29.0673 202.541 29.0206 202.569C28.9786 202.597 28.9343 202.611 28.8876 202.611C28.8176 202.611 28.7546 202.587 28.6986 202.541C28.6473 202.499 28.6216 202.443 28.6216 202.373C28.6216 202.335 28.6309 202.298 28.6496 202.261L29.1396 201.204L27.7536 198.208C27.7349 198.175 27.7256 198.14 27.7256 198.103C27.7256 198.033 27.7559 197.972 27.8166 197.921C27.8819 197.869 27.9519 197.844 28.0266 197.844C28.0733 197.844 28.1176 197.858 28.1596 197.886C28.2063 197.914 28.2413 197.953 28.2646 198.005L29.4336 200.63L30.6026 198.019ZM33.1143 201.372C32.7923 201.372 32.5076 201.299 32.2603 201.155C32.0176 201.01 31.8286 200.805 31.6933 200.539C31.5626 200.268 31.4973 199.955 31.4973 199.601C31.4973 199.246 31.5626 198.936 31.6933 198.67C31.8286 198.399 32.0176 198.191 32.2603 198.047C32.5076 197.902 32.7923 197.83 33.1143 197.83C33.4363 197.83 33.721 197.902 33.9683 198.047C34.2156 198.191 34.4046 198.399 34.5353 198.67C34.6706 198.936 34.7383 199.246 34.7383 199.601C34.7383 199.955 34.6706 200.268 34.5353 200.539C34.4046 200.805 34.2156 201.01 33.9683 201.155C33.721 201.299 33.4363 201.372 33.1143 201.372ZM33.1143 200.903C33.4503 200.903 33.707 200.793 33.8843 200.574C34.0663 200.35 34.1573 200.025 34.1573 199.601C34.1573 199.185 34.0663 198.866 33.8843 198.642C33.7023 198.413 33.4456 198.299 33.1143 198.299C32.783 198.299 32.5263 198.413 32.3443 198.642C32.1623 198.866 32.0713 199.185 32.0713 199.601C32.0713 200.021 32.16 200.343 32.3373 200.567C32.5193 200.791 32.7783 200.903 33.1143 200.903ZM38.1731 197.844C38.2618 197.844 38.3294 197.869 38.3761 197.921C38.4274 197.972 38.4531 198.04 38.4531 198.124V201.085C38.4531 201.164 38.4274 201.229 38.3761 201.281C38.3294 201.332 38.2618 201.358 38.1731 201.358C38.0891 201.358 38.0214 201.334 37.9701 201.288C37.9234 201.236 37.9001 201.171 37.9001 201.092V200.742C37.7928 200.947 37.6411 201.103 37.4451 201.211C37.2538 201.318 37.0368 201.372 36.7941 201.372C36.3881 201.372 36.0824 201.26 35.8771 201.036C35.6718 200.807 35.5691 200.471 35.5691 200.028V198.124C35.5691 198.04 35.5948 197.972 35.6461 197.921C35.6974 197.869 35.7674 197.844 35.8561 197.844C35.9448 197.844 36.0124 197.869 36.0591 197.921C36.1104 197.972 36.1361 198.04 36.1361 198.124V200.014C36.1361 200.317 36.1968 200.541 36.3181 200.686C36.4394 200.826 36.6308 200.896 36.8921 200.896C37.1908 200.896 37.4311 200.8 37.6131 200.609C37.7951 200.413 37.8861 200.156 37.8861 199.839V198.124C37.8861 198.04 37.9118 197.972 37.9631 197.921C38.0144 197.869 38.0844 197.844 38.1731 197.844ZM41.1939 197.844C41.3899 197.83 41.4879 197.909 41.4879 198.082C41.4879 198.156 41.4669 198.217 41.4249 198.264C41.3829 198.306 41.3106 198.331 41.2079 198.341L40.9979 198.362C40.6853 198.39 40.4519 198.502 40.2979 198.698C40.1486 198.889 40.0739 199.115 40.0739 199.377V201.078C40.0739 201.171 40.0483 201.241 39.9969 201.288C39.9456 201.334 39.8779 201.358 39.7939 201.358C39.7099 201.358 39.6399 201.334 39.5839 201.288C39.5326 201.236 39.5069 201.166 39.5069 201.078V198.124C39.5069 198.035 39.5349 197.967 39.5909 197.921C39.6469 197.869 39.7146 197.844 39.7939 197.844C39.8686 197.844 39.9316 197.869 39.9829 197.921C40.0343 197.967 40.0599 198.033 40.0599 198.117V198.509C40.1579 198.303 40.2956 198.147 40.4729 198.04C40.6549 197.932 40.8626 197.869 41.0959 197.851L41.1939 197.844ZM45.7687 197.83C46.5247 197.83 46.9027 198.28 46.9027 199.181V201.078C46.9027 201.166 46.877 201.236 46.8257 201.288C46.7744 201.334 46.7067 201.358 46.6227 201.358C46.5387 201.358 46.4687 201.334 46.4127 201.288C46.3614 201.236 46.3357 201.166 46.3357 201.078V199.195C46.3357 198.882 46.2797 198.656 46.1677 198.516C46.0557 198.376 45.8807 198.306 45.6427 198.306C45.358 198.306 45.134 198.401 44.9707 198.593C44.8074 198.784 44.7257 199.043 44.7257 199.37V201.078C44.7257 201.166 44.6977 201.236 44.6417 201.288C44.5904 201.334 44.5227 201.358 44.4387 201.358C44.3547 201.358 44.287 201.334 44.2357 201.288C44.1844 201.236 44.1587 201.166 44.1587 201.078V199.195C44.1587 198.882 44.1027 198.656 43.9907 198.516C43.8787 198.376 43.7014 198.306 43.4587 198.306C43.1787 198.306 42.9547 198.401 42.7867 198.593C42.6234 198.784 42.5417 199.043 42.5417 199.37V201.078C42.5417 201.166 42.516 201.236 42.4647 201.288C42.4134 201.334 42.3457 201.358 42.2617 201.358C42.1777 201.358 42.1077 201.334 42.0517 201.288C42.0004 201.236 41.9747 201.166 41.9747 201.078V198.124C41.9747 198.04 42.0004 197.972 42.0517 197.921C42.1077 197.869 42.1777 197.844 42.2617 197.844C42.341 197.844 42.4064 197.869 42.4577 197.921C42.509 197.967 42.5347 198.033 42.5347 198.117V198.453C42.6374 198.252 42.7797 198.098 42.9617 197.991C43.1437 197.883 43.3537 197.83 43.5917 197.83C44.1237 197.83 44.4714 198.054 44.6347 198.502C44.7327 198.296 44.882 198.133 45.0827 198.012C45.2834 197.89 45.512 197.83 45.7687 197.83ZM49.3286 197.83C50.1826 197.83 50.6096 198.278 50.6096 199.174V201.078C50.6096 201.162 50.584 201.229 50.5326 201.281C50.486 201.332 50.4206 201.358 50.3366 201.358C50.2526 201.358 50.185 201.332 50.1336 201.281C50.0823 201.229 50.0566 201.162 50.0566 201.078V200.742C49.968 200.942 49.8326 201.099 49.6506 201.211C49.4686 201.318 49.2586 201.372 49.0206 201.372C48.8013 201.372 48.5983 201.327 48.4116 201.239C48.2296 201.15 48.085 201.026 47.9776 200.868C47.8703 200.709 47.8166 200.534 47.8166 200.343C47.8166 200.086 47.882 199.888 48.0126 199.748C48.1433 199.603 48.358 199.5 48.6566 199.44C48.9553 199.374 49.3706 199.342 49.9026 199.342H50.0566V199.111C50.0566 198.831 49.9983 198.625 49.8816 198.495C49.7696 198.364 49.5853 198.299 49.3286 198.299C49.0113 198.299 48.6893 198.385 48.3626 198.558C48.2366 198.637 48.148 198.677 48.0966 198.677C48.0406 198.677 47.994 198.656 47.9566 198.614C47.9193 198.572 47.9006 198.518 47.9006 198.453C47.9006 198.387 47.9193 198.331 47.9566 198.285C47.9986 198.233 48.064 198.182 48.1526 198.131C48.316 198.037 48.5003 197.965 48.7056 197.914C48.9156 197.858 49.1233 197.83 49.3286 197.83ZM49.0976 200.924C49.3776 200.924 49.6063 200.83 49.7836 200.644C49.9656 200.452 50.0566 200.207 50.0566 199.909V199.706H49.9306C49.52 199.706 49.2073 199.724 48.9926 199.762C48.778 199.794 48.624 199.853 48.5306 199.937C48.442 200.016 48.3976 200.135 48.3976 200.294C48.3976 200.476 48.463 200.627 48.5936 200.749C48.729 200.865 48.897 200.924 49.0976 200.924ZM51.9346 201.358C51.8506 201.358 51.7806 201.334 51.7246 201.288C51.6732 201.236 51.6476 201.166 51.6476 201.078V198.124C51.6476 198.035 51.6732 197.967 51.7246 197.921C51.7806 197.869 51.8506 197.844 51.9346 197.844C52.0186 197.844 52.0862 197.869 52.1376 197.921C52.1889 197.967 52.2146 198.035 52.2146 198.124V201.078C52.2146 201.171 52.1889 201.241 52.1376 201.288C52.0862 201.334 52.0186 201.358 51.9346 201.358ZM51.9346 197.109C51.8226 197.109 51.7316 197.076 51.6616 197.011C51.5916 196.945 51.5566 196.859 51.5566 196.752C51.5566 196.649 51.5916 196.565 51.6616 196.5C51.7316 196.434 51.8226 196.402 51.9346 196.402C52.0466 196.402 52.1376 196.434 52.2076 196.5C52.2776 196.565 52.3126 196.649 52.3126 196.752C52.3126 196.859 52.2776 196.945 52.2076 197.011C52.1376 197.076 52.0466 197.109 51.9346 197.109ZM53.5615 201.358C53.4775 201.358 53.4075 201.334 53.3515 201.288C53.3002 201.236 53.2745 201.166 53.2745 201.078V196.633C53.2745 196.544 53.3002 196.476 53.3515 196.43C53.4075 196.378 53.4775 196.353 53.5615 196.353C53.6408 196.353 53.7062 196.378 53.7575 196.43C53.8135 196.476 53.8415 196.544 53.8415 196.633V201.078C53.8415 201.166 53.8135 201.236 53.7575 201.288C53.7062 201.334 53.6408 201.358 53.5615 201.358ZM57.6875 202.387C57.0855 202.387 56.5605 202.263 56.1125 202.016C55.6645 201.768 55.3191 201.421 55.0765 200.973C54.8385 200.52 54.7195 200 54.7195 199.412C54.7195 198.796 54.8478 198.257 55.1045 197.795C55.3658 197.333 55.7205 196.976 56.1685 196.724C56.6211 196.472 57.1275 196.346 57.6875 196.346C58.2848 196.346 58.7958 196.469 59.2205 196.717C59.6498 196.959 59.9718 197.277 60.1865 197.669C60.4058 198.061 60.5155 198.476 60.5155 198.915C60.5155 199.372 60.4455 199.748 60.3055 200.042C60.1701 200.331 59.9951 200.543 59.7805 200.679C59.5705 200.809 59.3465 200.875 59.1085 200.875C58.8611 200.875 58.6651 200.821 58.5205 200.714C58.3805 200.602 58.3011 200.448 58.2825 200.252H58.2685C58.1518 200.443 58.0048 200.595 57.8275 200.707C57.6548 200.819 57.4518 200.875 57.2185 200.875C56.9105 200.875 56.6608 200.767 56.4695 200.553C56.2781 200.333 56.1825 200.032 56.1825 199.65C56.1825 199.332 56.2431 199.034 56.3645 198.754C56.4905 198.474 56.6655 198.25 56.8895 198.082C57.1135 197.914 57.3701 197.83 57.6595 197.83C57.8788 197.83 58.0701 197.883 58.2335 197.991C58.3968 198.093 58.5041 198.229 58.5555 198.397H58.5625L58.6185 198.089C58.6278 198.033 58.6535 197.988 58.6955 197.956C58.7375 197.923 58.7888 197.907 58.8495 197.907C58.9148 197.907 58.9661 197.925 59.0035 197.963C59.0455 198 59.0665 198.051 59.0665 198.117C59.0665 198.14 59.0641 198.159 59.0595 198.173L58.7725 199.811C58.7538 199.941 58.7445 200.025 58.7445 200.063C58.7445 200.221 58.7818 200.333 58.8565 200.399C58.9311 200.464 59.0431 200.497 59.1925 200.497C59.3231 200.497 59.4561 200.445 59.5915 200.343C59.7268 200.235 59.8411 200.065 59.9345 199.832C60.0278 199.594 60.0745 199.288 60.0745 198.915C60.0745 198.546 59.9858 198.198 59.8085 197.872C59.6311 197.545 59.3628 197.281 59.0035 197.081C58.6441 196.875 58.2055 196.773 57.6875 196.773C57.2115 196.773 56.7821 196.88 56.3995 197.095C56.0215 197.305 55.7228 197.61 55.5035 198.012C55.2841 198.408 55.1745 198.875 55.1745 199.412C55.1745 199.925 55.2748 200.375 55.4755 200.763C55.6761 201.145 55.9655 201.439 56.3435 201.645C56.7215 201.855 57.1695 201.96 57.6875 201.96C58.3968 201.96 58.9498 201.768 59.3465 201.386C59.4118 201.325 59.4795 201.295 59.5495 201.295C59.6055 201.295 59.6521 201.316 59.6895 201.358C59.7268 201.4 59.7455 201.451 59.7455 201.512C59.7455 201.586 59.7175 201.649 59.6615 201.701C59.4515 201.911 59.1738 202.076 58.8285 202.198C58.4878 202.324 58.1075 202.387 57.6875 202.387ZM57.3095 200.497C57.5428 200.497 57.7435 200.427 57.9115 200.287C58.0841 200.142 58.2148 199.958 58.3035 199.734C58.3921 199.51 58.4365 199.274 58.4365 199.027C58.4365 198.765 58.3711 198.567 58.2405 198.432C58.1145 198.292 57.9418 198.222 57.7225 198.222C57.4985 198.222 57.3025 198.289 57.1345 198.425C56.9711 198.56 56.8451 198.737 56.7565 198.957C56.6725 199.171 56.6305 199.395 56.6305 199.629C56.6305 199.904 56.6958 200.119 56.8265 200.273C56.9571 200.422 57.1181 200.497 57.3095 200.497ZM64.1469 197.844C64.2356 197.844 64.3056 197.869 64.3569 197.921C64.4083 197.972 64.4339 198.04 64.4339 198.124V201.092C64.4339 201.6 64.3033 201.983 64.0419 202.24C63.7806 202.501 63.3933 202.632 62.8799 202.632C62.3806 202.632 61.9653 202.534 61.6339 202.338C61.4659 202.244 61.3819 202.137 61.3819 202.016C61.3819 201.95 61.3983 201.897 61.4309 201.855C61.4683 201.813 61.5149 201.792 61.5709 201.792C61.6176 201.792 61.7016 201.824 61.8229 201.89C61.9863 201.974 62.1473 202.041 62.3059 202.093C62.4646 202.144 62.6536 202.17 62.8729 202.17C63.2043 202.17 63.4539 202.081 63.6219 201.904C63.7899 201.731 63.8739 201.477 63.8739 201.141V200.539C63.7759 200.758 63.6243 200.926 63.4189 201.043C63.2183 201.159 62.9803 201.218 62.7049 201.218C62.4063 201.218 62.1403 201.148 61.9069 201.008C61.6783 200.868 61.4986 200.669 61.3679 200.413C61.2419 200.156 61.1789 199.86 61.1789 199.524C61.1789 199.188 61.2419 198.891 61.3679 198.635C61.4986 198.378 61.6783 198.18 61.9069 198.04C62.1403 197.9 62.4063 197.83 62.7049 197.83C62.9756 197.83 63.2113 197.888 63.4119 198.005C63.6126 198.121 63.7643 198.287 63.8669 198.502V198.124C63.8669 198.04 63.8903 197.972 63.9369 197.921C63.9883 197.869 64.0583 197.844 64.1469 197.844ZM62.8169 200.749C63.1436 200.749 63.4003 200.641 63.5869 200.427C63.7736 200.207 63.8669 199.906 63.8669 199.524C63.8669 199.146 63.7736 198.849 63.5869 198.635C63.4049 198.415 63.1483 198.306 62.8169 198.306C62.4856 198.306 62.2243 198.415 62.0329 198.635C61.8463 198.849 61.7529 199.146 61.7529 199.524C61.7529 199.906 61.8463 200.207 62.0329 200.427C62.2243 200.641 62.4856 200.749 62.8169 200.749ZM69.2775 197.83C70.0335 197.83 70.4115 198.28 70.4115 199.181V201.078C70.4115 201.166 70.3858 201.236 70.3345 201.288C70.2832 201.334 70.2155 201.358 70.1315 201.358C70.0475 201.358 69.9775 201.334 69.9215 201.288C69.8702 201.236 69.8445 201.166 69.8445 201.078V199.195C69.8445 198.882 69.7885 198.656 69.6765 198.516C69.5645 198.376 69.3895 198.306 69.1515 198.306C68.8668 198.306 68.6428 198.401 68.4795 198.593C68.3162 198.784 68.2345 199.043 68.2345 199.37V201.078C68.2345 201.166 68.2065 201.236 68.1505 201.288C68.0992 201.334 68.0315 201.358 67.9475 201.358C67.8635 201.358 67.7958 201.334 67.7445 201.288C67.6932 201.236 67.6675 201.166 67.6675 201.078V199.195C67.6675 198.882 67.6115 198.656 67.4995 198.516C67.3875 198.376 67.2102 198.306 66.9675 198.306C66.6875 198.306 66.4635 198.401 66.2955 198.593C66.1322 198.784 66.0505 199.043 66.0505 199.37V201.078C66.0505 201.166 66.0248 201.236 65.9735 201.288C65.9222 201.334 65.8545 201.358 65.7705 201.358C65.6865 201.358 65.6165 201.334 65.5605 201.288C65.5092 201.236 65.4835 201.166 65.4835 201.078V198.124C65.4835 198.04 65.5092 197.972 65.5605 197.921C65.6165 197.869 65.6865 197.844 65.7705 197.844C65.8498 197.844 65.9152 197.869 65.9665 197.921C66.0178 197.967 66.0435 198.033 66.0435 198.117V198.453C66.1462 198.252 66.2885 198.098 66.4705 197.991C66.6525 197.883 66.8625 197.83 67.1005 197.83C67.6325 197.83 67.9802 198.054 68.1435 198.502C68.2415 198.296 68.3908 198.133 68.5915 198.012C68.7922 197.89 69.0208 197.83 69.2775 197.83ZM72.8374 197.83C73.6914 197.83 74.1184 198.278 74.1184 199.174V201.078C74.1184 201.162 74.0928 201.229 74.0414 201.281C73.9948 201.332 73.9294 201.358 73.8454 201.358C73.7614 201.358 73.6938 201.332 73.6424 201.281C73.5911 201.229 73.5654 201.162 73.5654 201.078V200.742C73.4768 200.942 73.3414 201.099 73.1594 201.211C72.9774 201.318 72.7674 201.372 72.5294 201.372C72.3101 201.372 72.1071 201.327 71.9204 201.239C71.7384 201.15 71.5938 201.026 71.4864 200.868C71.3791 200.709 71.3254 200.534 71.3254 200.343C71.3254 200.086 71.3908 199.888 71.5214 199.748C71.6521 199.603 71.8668 199.5 72.1654 199.44C72.4641 199.374 72.8794 199.342 73.4114 199.342H73.5654V199.111C73.5654 198.831 73.5071 198.625 73.3904 198.495C73.2784 198.364 73.0941 198.299 72.8374 198.299C72.5201 198.299 72.1981 198.385 71.8714 198.558C71.7454 198.637 71.6568 198.677 71.6054 198.677C71.5494 198.677 71.5028 198.656 71.4654 198.614C71.4281 198.572 71.4094 198.518 71.4094 198.453C71.4094 198.387 71.4281 198.331 71.4654 198.285C71.5074 198.233 71.5728 198.182 71.6614 198.131C71.8248 198.037 72.0091 197.965 72.2144 197.914C72.4244 197.858 72.6321 197.83 72.8374 197.83ZM72.6064 200.924C72.8864 200.924 73.1151 200.83 73.2924 200.644C73.4744 200.452 73.5654 200.207 73.5654 199.909V199.706H73.4394C73.0288 199.706 72.7161 199.724 72.5014 199.762C72.2868 199.794 72.1328 199.853 72.0394 199.937C71.9508 200.016 71.9064 200.135 71.9064 200.294C71.9064 200.476 71.9718 200.627 72.1024 200.749C72.2378 200.865 72.4058 200.924 72.6064 200.924ZM75.4433 201.358C75.3593 201.358 75.2893 201.334 75.2333 201.288C75.182 201.236 75.1563 201.166 75.1563 201.078V198.124C75.1563 198.035 75.182 197.967 75.2333 197.921C75.2893 197.869 75.3593 197.844 75.4433 197.844C75.5273 197.844 75.595 197.869 75.6463 197.921C75.6977 197.967 75.7233 198.035 75.7233 198.124V201.078C75.7233 201.171 75.6977 201.241 75.6463 201.288C75.595 201.334 75.5273 201.358 75.4433 201.358ZM75.4433 197.109C75.3313 197.109 75.2403 197.076 75.1703 197.011C75.1003 196.945 75.0653 196.859 75.0653 196.752C75.0653 196.649 75.1003 196.565 75.1703 196.5C75.2403 196.434 75.3313 196.402 75.4433 196.402C75.5553 196.402 75.6463 196.434 75.7163 196.5C75.7863 196.565 75.8213 196.649 75.8213 196.752C75.8213 196.859 75.7863 196.945 75.7163 197.011C75.6463 197.076 75.5553 197.109 75.4433 197.109ZM77.0703 201.358C76.9863 201.358 76.9163 201.334 76.8603 201.288C76.809 201.236 76.7833 201.166 76.7833 201.078V196.633C76.7833 196.544 76.809 196.476 76.8603 196.43C76.9163 196.378 76.9863 196.353 77.0703 196.353C77.1496 196.353 77.215 196.378 77.2663 196.43C77.3223 196.476 77.3503 196.544 77.3503 196.633V201.078C77.3503 201.166 77.3223 201.236 77.2663 201.288C77.215 201.334 77.1496 201.358 77.0703 201.358ZM78.6903 201.358C78.5783 201.358 78.4849 201.323 78.4103 201.253C78.3356 201.178 78.2983 201.082 78.2983 200.966C78.2983 200.849 78.3356 200.753 78.4103 200.679C78.4849 200.604 78.5783 200.567 78.6903 200.567C78.7976 200.567 78.8863 200.604 78.9563 200.679C79.0309 200.753 79.0683 200.849 79.0683 200.966C79.0683 201.082 79.0309 201.178 78.9563 201.253C78.8863 201.323 78.7976 201.358 78.6903 201.358ZM81.3007 201.372C80.9833 201.372 80.701 201.299 80.4537 201.155C80.211 201.01 80.022 200.805 79.8867 200.539C79.756 200.273 79.6907 199.965 79.6907 199.615C79.6907 199.265 79.7583 198.954 79.8937 198.684C80.0337 198.413 80.2273 198.203 80.4747 198.054C80.722 197.904 81.0067 197.83 81.3287 197.83C81.506 197.83 81.681 197.855 81.8537 197.907C82.031 197.953 82.185 198.023 82.3157 198.117C82.3997 198.173 82.458 198.229 82.4907 198.285C82.528 198.336 82.5467 198.394 82.5467 198.46C82.5467 198.525 82.528 198.579 82.4907 198.621C82.458 198.663 82.4137 198.684 82.3577 198.684C82.325 198.684 82.29 198.674 82.2527 198.656C82.2153 198.637 82.1827 198.618 82.1547 198.6C82.1313 198.581 82.115 198.569 82.1057 198.565C81.9843 198.485 81.8677 198.422 81.7557 198.376C81.6483 198.329 81.5153 198.306 81.3567 198.306C81.016 198.306 80.75 198.422 80.5587 198.656C80.372 198.884 80.2787 199.204 80.2787 199.615C80.2787 200.025 80.372 200.343 80.5587 200.567C80.75 200.791 81.016 200.903 81.3567 200.903C81.5153 200.903 81.6507 200.879 81.7627 200.833C81.8793 200.786 81.996 200.723 82.1127 200.644C82.164 200.611 82.213 200.583 82.2597 200.56C82.3063 200.536 82.346 200.525 82.3787 200.525C82.43 200.525 82.472 200.546 82.5047 200.588C82.542 200.63 82.5607 200.683 82.5607 200.749C82.5607 200.809 82.5443 200.865 82.5117 200.917C82.479 200.963 82.4183 201.017 82.3297 201.078C82.199 201.166 82.0403 201.239 81.8537 201.295C81.6717 201.346 81.4873 201.372 81.3007 201.372ZM84.6573 201.372C84.3353 201.372 84.0506 201.299 83.8033 201.155C83.5606 201.01 83.3716 200.805 83.2363 200.539C83.1056 200.268 83.0403 199.955 83.0403 199.601C83.0403 199.246 83.1056 198.936 83.2363 198.67C83.3716 198.399 83.5606 198.191 83.8033 198.047C84.0506 197.902 84.3353 197.83 84.6573 197.83C84.9793 197.83 85.2639 197.902 85.5113 198.047C85.7586 198.191 85.9476 198.399 86.0783 198.67C86.2136 198.936 86.2813 199.246 86.2813 199.601C86.2813 199.955 86.2136 200.268 86.0783 200.539C85.9476 200.805 85.7586 201.01 85.5113 201.155C85.2639 201.299 84.9793 201.372 84.6573 201.372ZM84.6573 200.903C84.9933 200.903 85.2499 200.793 85.4273 200.574C85.6093 200.35 85.7003 200.025 85.7003 199.601C85.7003 199.185 85.6093 198.866 85.4273 198.642C85.2453 198.413 84.9886 198.299 84.6573 198.299C84.3259 198.299 84.0693 198.413 83.8873 198.642C83.7053 198.866 83.6143 199.185 83.6143 199.601C83.6143 200.021 83.7029 200.343 83.8803 200.567C84.0623 200.791 84.3213 200.903 84.6573 200.903ZM90.9201 197.83C91.6761 197.83 92.0541 198.28 92.0541 199.181V201.078C92.0541 201.166 92.0284 201.236 91.9771 201.288C91.9257 201.334 91.8581 201.358 91.7741 201.358C91.6901 201.358 91.6201 201.334 91.5641 201.288C91.5127 201.236 91.4871 201.166 91.4871 201.078V199.195C91.4871 198.882 91.4311 198.656 91.3191 198.516C91.2071 198.376 91.0321 198.306 90.7941 198.306C90.5094 198.306 90.2854 198.401 90.1221 198.593C89.9587 198.784 89.8771 199.043 89.8771 199.37V201.078C89.8771 201.166 89.8491 201.236 89.7931 201.288C89.7417 201.334 89.6741 201.358 89.5901 201.358C89.5061 201.358 89.4384 201.334 89.3871 201.288C89.3357 201.236 89.3101 201.166 89.3101 201.078V199.195C89.3101 198.882 89.2541 198.656 89.1421 198.516C89.0301 198.376 88.8527 198.306 88.6101 198.306C88.3301 198.306 88.1061 198.401 87.9381 198.593C87.7747 198.784 87.6931 199.043 87.6931 199.37V201.078C87.6931 201.166 87.6674 201.236 87.6161 201.288C87.5647 201.334 87.4971 201.358 87.4131 201.358C87.3291 201.358 87.2591 201.334 87.2031 201.288C87.1517 201.236 87.1261 201.166 87.1261 201.078V198.124C87.1261 198.04 87.1517 197.972 87.2031 197.921C87.2591 197.869 87.3291 197.844 87.4131 197.844C87.4924 197.844 87.5577 197.869 87.6091 197.921C87.6604 197.967 87.6861 198.033 87.6861 198.117V198.453C87.7887 198.252 87.9311 198.098 88.1131 197.991C88.2951 197.883 88.5051 197.83 88.7431 197.83C89.2751 197.83 89.6227 198.054 89.7861 198.502C89.8841 198.296 90.0334 198.133 90.2341 198.012C90.4347 197.89 90.6634 197.83 90.9201 197.83Z" fill="#515151"/>
<path d="M31.5106 242.603C31.6173 242.596 31.7006 242.623 31.7606 242.683C31.8273 242.743 31.8606 242.816 31.8606 242.903C31.8606 242.983 31.8273 243.056 31.7606 243.123C31.7006 243.183 31.6173 243.209 31.5106 243.203L30.3206 243.163L30.9506 244.173C30.9906 244.239 31.0106 244.303 31.0106 244.363C31.0106 244.443 30.9773 244.513 30.9106 244.573C30.8506 244.626 30.7806 244.653 30.7006 244.653C30.5873 244.653 30.4973 244.593 30.4306 244.473L29.8706 243.413L29.3106 244.483C29.2439 244.603 29.1539 244.663 29.0406 244.663C28.9606 244.663 28.8873 244.633 28.8206 244.573C28.7539 244.513 28.7206 244.443 28.7206 244.363C28.7206 244.303 28.7406 244.243 28.7806 244.183L29.4306 243.163L28.2206 243.203C28.1206 243.209 28.0406 243.183 27.9806 243.123C27.9206 243.056 27.8906 242.983 27.8906 242.903C27.8906 242.816 27.9173 242.743 27.9706 242.683C28.0306 242.623 28.1139 242.596 28.2206 242.603L29.4306 242.643L28.7806 241.633C28.7406 241.573 28.7206 241.509 28.7206 241.443C28.7206 241.363 28.7539 241.293 28.8206 241.233C28.8873 241.173 28.9606 241.143 29.0406 241.143C29.1539 241.143 29.2439 241.203 29.3106 241.323L29.8706 242.393L30.4306 241.333C30.4973 241.206 30.5906 241.143 30.7106 241.143C30.7906 241.143 30.8606 241.173 30.9206 241.233C30.9806 241.286 31.0106 241.353 31.0106 241.433C31.0106 241.493 30.9906 241.559 30.9506 241.633L30.3206 242.643L31.5106 242.603ZM37.0126 242.603C37.1192 242.596 37.2026 242.623 37.2626 242.683C37.3292 242.743 37.3626 242.816 37.3626 242.903C37.3626 242.983 37.3292 243.056 37.2626 243.123C37.2026 243.183 37.1192 243.209 37.0126 243.203L35.8226 243.163L36.4526 244.173C36.4926 244.239 36.5126 244.303 36.5126 244.363C36.5126 244.443 36.4792 244.513 36.4126 244.573C36.3526 244.626 36.2826 244.653 36.2026 244.653C36.0892 244.653 35.9992 244.593 35.9326 244.473L35.3726 243.413L34.8126 244.483C34.7459 244.603 34.6559 244.663 34.5426 244.663C34.4626 244.663 34.3892 244.633 34.3226 244.573C34.2559 244.513 34.2226 244.443 34.2226 244.363C34.2226 244.303 34.2426 244.243 34.2826 244.183L34.9326 243.163L33.7226 243.203C33.6226 243.209 33.5426 243.183 33.4826 243.123C33.4226 243.056 33.3926 242.983 33.3926 242.903C33.3926 242.816 33.4192 242.743 33.4726 242.683C33.5326 242.623 33.6159 242.596 33.7226 242.603L34.9326 242.643L34.2826 241.633C34.2426 241.573 34.2226 241.509 34.2226 241.443C34.2226 241.363 34.2559 241.293 34.3226 241.233C34.3892 241.173 34.4626 241.143 34.5426 241.143C34.6559 241.143 34.7459 241.203 34.8126 241.323L35.3726 242.393L35.9326 241.333C35.9992 241.206 36.0926 241.143 36.2126 241.143C36.2926 241.143 36.3626 241.173 36.4226 241.233C36.4826 241.286 36.5126 241.353 36.5126 241.433C36.5126 241.493 36.4926 241.559 36.4526 241.633L35.8226 242.643L37.0126 242.603ZM42.5145 242.603C42.6212 242.596 42.7045 242.623 42.7645 242.683C42.8312 242.743 42.8645 242.816 42.8645 242.903C42.8645 242.983 42.8312 243.056 42.7645 243.123C42.7045 243.183 42.6212 243.209 42.5145 243.203L41.3245 243.163L41.9545 244.173C41.9945 244.239 42.0145 244.303 42.0145 244.363C42.0145 244.443 41.9812 244.513 41.9145 244.573C41.8545 244.626 41.7845 244.653 41.7045 244.653C41.5912 244.653 41.5012 244.593 41.4345 244.473L40.8745 243.413L40.3145 244.483C40.2478 244.603 40.1578 244.663 40.0445 244.663C39.9645 244.663 39.8912 244.633 39.8245 244.573C39.7578 244.513 39.7245 244.443 39.7245 244.363C39.7245 244.303 39.7445 244.243 39.7845 244.183L40.4345 243.163L39.2245 243.203C39.1245 243.209 39.0445 243.183 38.9845 243.123C38.9245 243.056 38.8945 242.983 38.8945 242.903C38.8945 242.816 38.9212 242.743 38.9745 242.683C39.0345 242.623 39.1178 242.596 39.2245 242.603L40.4345 242.643L39.7845 241.633C39.7445 241.573 39.7245 241.509 39.7245 241.443C39.7245 241.363 39.7578 241.293 39.8245 241.233C39.8912 241.173 39.9645 241.143 40.0445 241.143C40.1578 241.143 40.2478 241.203 40.3145 241.323L40.8745 242.393L41.4345 241.333C41.5012 241.206 41.5945 241.143 41.7145 241.143C41.7945 241.143 41.8645 241.173 41.9245 241.233C41.9845 241.286 42.0145 241.353 42.0145 241.433C42.0145 241.493 41.9945 241.559 41.9545 241.633L41.3245 242.643L42.5145 242.603ZM48.0165 242.603C48.1231 242.596 48.2065 242.623 48.2665 242.683C48.3331 242.743 48.3665 242.816 48.3665 242.903C48.3665 242.983 48.3331 243.056 48.2665 243.123C48.2065 243.183 48.1231 243.209 48.0165 243.203L46.8265 243.163L47.4565 244.173C47.4965 244.239 47.5165 244.303 47.5165 244.363C47.5165 244.443 47.4831 244.513 47.4165 244.573C47.3565 244.626 47.2865 244.653 47.2065 244.653C47.0931 244.653 47.0031 244.593 46.9365 244.473L46.3765 243.413L45.8165 244.483C45.7498 244.603 45.6598 244.663 45.5465 244.663C45.4665 244.663 45.3931 244.633 45.3265 244.573C45.2598 244.513 45.2265 244.443 45.2265 244.363C45.2265 244.303 45.2465 244.243 45.2865 244.183L45.9365 243.163L44.7265 243.203C44.6265 243.209 44.5465 243.183 44.4865 243.123C44.4265 243.056 44.3965 242.983 44.3965 242.903C44.3965 242.816 44.4231 242.743 44.4765 242.683C44.5365 242.623 44.6198 242.596 44.7265 242.603L45.9365 242.643L45.2865 241.633C45.2465 241.573 45.2265 241.509 45.2265 241.443C45.2265 241.363 45.2598 241.293 45.3265 241.233C45.3931 241.173 45.4665 241.143 45.5465 241.143C45.6598 241.143 45.7498 241.203 45.8165 241.323L46.3765 242.393L46.9365 241.333C47.0031 241.206 47.0965 241.143 47.2165 241.143C47.2965 241.143 47.3665 241.173 47.4265 241.233C47.4865 241.286 47.5165 241.353 47.5165 241.433C47.5165 241.493 47.4965 241.559 47.4565 241.633L46.8265 242.643L48.0165 242.603ZM53.5184 242.603C53.6251 242.596 53.7084 242.623 53.7684 242.683C53.8351 242.743 53.8684 242.816 53.8684 242.903C53.8684 242.983 53.8351 243.056 53.7684 243.123C53.7084 243.183 53.6251 243.209 53.5184 243.203L52.3284 243.163L52.9584 244.173C52.9984 244.239 53.0184 244.303 53.0184 244.363C53.0184 244.443 52.9851 244.513 52.9184 244.573C52.8584 244.626 52.7884 244.653 52.7084 244.653C52.5951 244.653 52.5051 244.593 52.4384 244.473L51.8784 243.413L51.3184 244.483C51.2518 244.603 51.1618 244.663 51.0484 244.663C50.9684 244.663 50.8951 244.633 50.8284 244.573C50.7618 244.513 50.7284 244.443 50.7284 244.363C50.7284 244.303 50.7484 244.243 50.7884 244.183L51.4384 243.163L50.2284 243.203C50.1284 243.209 50.0484 243.183 49.9884 243.123C49.9284 243.056 49.8984 242.983 49.8984 242.903C49.8984 242.816 49.9251 242.743 49.9784 242.683C50.0384 242.623 50.1218 242.596 50.2284 242.603L51.4384 242.643L50.7884 241.633C50.7484 241.573 50.7284 241.509 50.7284 241.443C50.7284 241.363 50.7618 241.293 50.8284 241.233C50.8951 241.173 50.9684 241.143 51.0484 241.143C51.1618 241.143 51.2518 241.203 51.3184 241.323L51.8784 242.393L52.4384 241.333C52.5051 241.206 52.5984 241.143 52.7184 241.143C52.7984 241.143 52.8684 241.173 52.9284 241.233C52.9884 241.286 53.0184 241.353 53.0184 241.433C53.0184 241.493 52.9984 241.559 52.9584 241.633L52.3284 242.643L53.5184 242.603ZM59.0204 242.603C59.127 242.596 59.2104 242.623 59.2704 242.683C59.337 242.743 59.3704 242.816 59.3704 242.903C59.3704 242.983 59.337 243.056 59.2704 243.123C59.2104 243.183 59.127 243.209 59.0204 243.203L57.8304 243.163L58.4604 244.173C58.5004 244.239 58.5204 244.303 58.5204 244.363C58.5204 244.443 58.487 244.513 58.4204 244.573C58.3604 244.626 58.2904 244.653 58.2104 244.653C58.097 244.653 58.007 244.593 57.9404 244.473L57.3804 243.413L56.8204 244.483C56.7537 244.603 56.6637 244.663 56.5504 244.663C56.4704 244.663 56.397 244.633 56.3304 244.573C56.2637 244.513 56.2304 244.443 56.2304 244.363C56.2304 244.303 56.2504 244.243 56.2904 244.183L56.9404 243.163L55.7304 243.203C55.6304 243.209 55.5504 243.183 55.4904 243.123C55.4304 243.056 55.4004 242.983 55.4004 242.903C55.4004 242.816 55.427 242.743 55.4804 242.683C55.5404 242.623 55.6237 242.596 55.7304 242.603L56.9404 242.643L56.2904 241.633C56.2504 241.573 56.2304 241.509 56.2304 241.443C56.2304 241.363 56.2637 241.293 56.3304 241.233C56.397 241.173 56.4704 241.143 56.5504 241.143C56.6637 241.143 56.7537 241.203 56.8204 241.323L57.3804 242.393L57.9404 241.333C58.007 241.206 58.1004 241.143 58.2204 241.143C58.3004 241.143 58.3704 241.173 58.4304 241.233C58.4904 241.286 58.5204 241.353 58.5204 241.433C58.5204 241.493 58.5004 241.559 58.4604 241.633L57.8304 242.643L59.0204 242.603ZM64.5223 242.603C64.629 242.596 64.7123 242.623 64.7723 242.683C64.839 242.743 64.8723 242.816 64.8723 242.903C64.8723 242.983 64.839 243.056 64.7723 243.123C64.7123 243.183 64.629 243.209 64.5223 243.203L63.3323 243.163L63.9623 244.173C64.0023 244.239 64.0223 244.303 64.0223 244.363C64.0223 244.443 63.989 244.513 63.9223 244.573C63.8623 244.626 63.7923 244.653 63.7123 244.653C63.599 244.653 63.509 244.593 63.4423 244.473L62.8823 243.413L62.3223 244.483C62.2557 244.603 62.1657 244.663 62.0523 244.663C61.9723 244.663 61.899 244.633 61.8323 244.573C61.7657 244.513 61.7323 244.443 61.7323 244.363C61.7323 244.303 61.7523 244.243 61.7923 244.183L62.4423 243.163L61.2323 243.203C61.1323 243.209 61.0523 243.183 60.9923 243.123C60.9323 243.056 60.9023 242.983 60.9023 242.903C60.9023 242.816 60.929 242.743 60.9823 242.683C61.0423 242.623 61.1257 242.596 61.2323 242.603L62.4423 242.643L61.7923 241.633C61.7523 241.573 61.7323 241.509 61.7323 241.443C61.7323 241.363 61.7657 241.293 61.8323 241.233C61.899 241.173 61.9723 241.143 62.0523 241.143C62.1657 241.143 62.2557 241.203 62.3223 241.323L62.8823 242.393L63.4423 241.333C63.509 241.206 63.6023 241.143 63.7223 241.143C63.8023 241.143 63.8723 241.173 63.9323 241.233C63.9923 241.286 64.0223 241.353 64.0223 241.433C64.0223 241.493 64.0023 241.559 63.9623 241.633L63.3323 242.643L64.5223 242.603ZM70.0243 242.603C70.1309 242.596 70.2143 242.623 70.2743 242.683C70.3409 242.743 70.3743 242.816 70.3743 242.903C70.3743 242.983 70.3409 243.056 70.2743 243.123C70.2143 243.183 70.1309 243.209 70.0243 243.203L68.8343 243.163L69.4643 244.173C69.5043 244.239 69.5243 244.303 69.5243 244.363C69.5243 244.443 69.4909 244.513 69.4243 244.573C69.3643 244.626 69.2943 244.653 69.2143 244.653C69.1009 244.653 69.0109 244.593 68.9443 244.473L68.3843 243.413L67.8243 244.483C67.7576 244.603 67.6676 244.663 67.5543 244.663C67.4743 244.663 67.4009 244.633 67.3343 244.573C67.2676 244.513 67.2343 244.443 67.2343 244.363C67.2343 244.303 67.2543 244.243 67.2943 244.183L67.9443 243.163L66.7343 243.203C66.6343 243.209 66.5543 243.183 66.4943 243.123C66.4343 243.056 66.4043 242.983 66.4043 242.903C66.4043 242.816 66.4309 242.743 66.4843 242.683C66.5443 242.623 66.6276 242.596 66.7343 242.603L67.9443 242.643L67.2943 241.633C67.2543 241.573 67.2343 241.509 67.2343 241.443C67.2343 241.363 67.2676 241.293 67.3343 241.233C67.4009 241.173 67.4743 241.143 67.5543 241.143C67.6676 241.143 67.7576 241.203 67.8243 241.323L68.3843 242.393L68.9443 241.333C69.0109 241.206 69.1043 241.143 69.2243 241.143C69.3043 241.143 69.3743 241.173 69.4343 241.233C69.4943 241.286 69.5243 241.353 69.5243 241.433C69.5243 241.493 69.5043 241.559 69.4643 241.633L68.8343 242.643L70.0243 242.603ZM75.5262 242.603C75.6329 242.596 75.7162 242.623 75.7762 242.683C75.8429 242.743 75.8762 242.816 75.8762 242.903C75.8762 242.983 75.8429 243.056 75.7762 243.123C75.7162 243.183 75.6329 243.209 75.5262 243.203L74.3362 243.163L74.9662 244.173C75.0062 244.239 75.0262 244.303 75.0262 244.363C75.0262 244.443 74.9929 244.513 74.9262 244.573C74.8662 244.626 74.7962 244.653 74.7162 244.653C74.6029 244.653 74.5129 244.593 74.4462 244.473L73.8862 243.413L73.3262 244.483C73.2596 244.603 73.1696 244.663 73.0562 244.663C72.9762 244.663 72.9029 244.633 72.8362 244.573C72.7696 244.513 72.7362 244.443 72.7362 244.363C72.7362 244.303 72.7562 244.243 72.7962 244.183L73.4462 243.163L72.2362 243.203C72.1362 243.209 72.0562 243.183 71.9962 243.123C71.9362 243.056 71.9062 242.983 71.9062 242.903C71.9062 242.816 71.9329 242.743 71.9862 242.683C72.0462 242.623 72.1296 242.596 72.2362 242.603L73.4462 242.643L72.7962 241.633C72.7562 241.573 72.7362 241.509 72.7362 241.443C72.7362 241.363 72.7696 241.293 72.8362 241.233C72.9029 241.173 72.9762 241.143 73.0562 241.143C73.1696 241.143 73.2596 241.203 73.3262 241.323L73.8862 242.393L74.4462 241.333C74.5129 241.206 74.6062 241.143 74.7262 241.143C74.8062 241.143 74.8762 241.173 74.9362 241.233C74.9962 241.286 75.0262 241.353 75.0262 241.433C75.0262 241.493 75.0062 241.559 74.9662 241.633L74.3362 242.643L75.5262 242.603ZM81.0282 242.603C81.1349 242.596 81.2182 242.623 81.2782 242.683C81.3449 242.743 81.3782 242.816 81.3782 242.903C81.3782 242.983 81.3449 243.056 81.2782 243.123C81.2182 243.183 81.1349 243.209 81.0282 243.203L79.8382 243.163L80.4682 244.173C80.5082 244.239 80.5282 244.303 80.5282 244.363C80.5282 244.443 80.4949 244.513 80.4282 244.573C80.3682 244.626 80.2982 244.653 80.2182 244.653C80.1049 244.653 80.0149 244.593 79.9482 244.473L79.3882 243.413L78.8282 244.483C78.7615 244.603 78.6715 244.663 78.5582 244.663C78.4782 244.663 78.4049 244.633 78.3382 244.573C78.2715 244.513 78.2382 244.443 78.2382 244.363C78.2382 244.303 78.2582 244.243 78.2982 244.183L78.9482 243.163L77.7382 243.203C77.6382 243.209 77.5582 243.183 77.4982 243.123C77.4382 243.056 77.4082 242.983 77.4082 242.903C77.4082 242.816 77.4349 242.743 77.4882 242.683C77.5482 242.623 77.6315 242.596 77.7382 242.603L78.9482 242.643L78.2982 241.633C78.2582 241.573 78.2382 241.509 78.2382 241.443C78.2382 241.363 78.2715 241.293 78.3382 241.233C78.4049 241.173 78.4782 241.143 78.5582 241.143C78.6715 241.143 78.7615 241.203 78.8282 241.323L79.3882 242.393L79.9482 241.333C80.0149 241.206 80.1082 241.143 80.2282 241.143C80.3082 241.143 80.3782 241.173 80.4382 241.233C80.4982 241.286 80.5282 241.353 80.5282 241.433C80.5282 241.493 80.5082 241.559 80.4682 241.633L79.8382 242.643L81.0282 242.603Z" fill="#FF3333"/>
<ellipse cx="259.145" cy="41.4523" rx="39.1455" ry="40.9518" fill="#2A2C32"/>
<path d="M259 19.5005C256.839 19.5005 254.863 20.4205 255.007 21.5005L257.004 48.5005C257.004 48.7657 257.214 49.0201 257.588 49.2076C257.963 49.3951 258.471 49.5005 259 49.5005C259.529 49.5005 260.037 49.3951 260.412 49.2076C260.786 49.0201 260.996 48.7657 260.996 48.5005L262.993 21.5005C263.137 20.4205 261.161 19.5005 259 19.5005Z" fill="#EEB524"/>
<path d="M259 62.5005C261.209 62.5005 263 60.7096 263 58.5005C263 56.2913 261.209 54.5005 259 54.5005C256.791 54.5005 255 56.2913 255 58.5005C255 60.7096 256.791 62.5005 259 62.5005Z" fill="#EEB524"/>
<rect x="160.198" y="111.262" width="229.802" height="35.8298" rx="5" fill="#7390F9"/>
<rect x="255.212" y="126.288" width="16.5722" height="4.62319" rx="2.3116" fill="white"/>
<rect x="276.204" y="126.288" width="15.4674" height="4.62319" rx="2.3116" fill="white"/>
<rect x="173.456" y="121.665" width="13.2578" height="13.8696" rx="6.6289" fill="white"/>
<rect x="296.091" y="126.288" width="16.5722" height="4.62319" rx="2.3116" fill="white"/>
<rect x="317.082" y="126.288" width="16.5722" height="4.62319" rx="2.3116" fill="white"/>
<rect x="338.074" y="126.288" width="16.5722" height="4.62319" rx="2.3116" fill="white"/>
<rect x="373.428" y="127.444" width="4.41927" height="2.3116" rx="1.1558" fill="white"/>
</svg>
